{"glyphs":{"0":{"ha":735,"x_min":36,"x_max":699,"o":"m 217 -7 q 344 35 278 -7 q 474 147 411 76 q 588 304 536 217 q 669 485 639 392 q 699 664 699 578 q 688 758 699 710 q 653 847 678 807 q 584 913 628 888 q 475 938 540 938 q 335 902 397 938 q 223 808 272 867 q 139 676 174 749 q 81 526 104 603 q 47 382 58 450 q 36 264 36 314 q 47 167 36 215 q 81 80 58 119 q 137 17 103 40 q 217 -7 171 -7 m 214 78 q 149 123 176 78 q 122 256 122 168 q 138 395 122 317 q 183 553 153 474 q 256 701 213 633 q 355 811 299 769 q 479 853 411 853 q 562 826 533 853 q 601 758 590 800 q 613 668 613 717 q 582 485 613 572 q 503 323 551 397 q 401 194 456 249 q 296 108 346 139 q 214 78 246 78 "},"1":{"ha":529,"x_min":132,"x_max":374,"o":"m 369 896 q 363 927 374 917 q 335 938 351 938 q 304 928 319 938 q 286 896 289 918 l 135 46 q 144 12 132 24 q 172 0 156 0 q 201 8 188 0 q 218 38 214 17 l 369 896 "},"2":{"ha":626,"x_min":-39,"x_max":600,"o":"m 10 0 l 81 81 q 151 159 110 114 q 237 253 192 204 q 322 347 282 303 q 390 421 363 390 q 424 458 418 451 q 557 647 514 569 q 600 781 600 725 q 579 851 600 821 q 518 906 558 881 q 459 930 492 922 q 392 938 426 938 q 236 908 315 938 q 104 833 157 878 q 74 792 74 808 q 85 764 75 775 q 115 753 94 753 q 165 778 135 753 q 272 833 208 814 q 392 853 335 853 q 481 833 444 853 q 513 772 513 811 q 475 663 513 725 q 389 547 438 601 l -18 90 q -37 49 -36 71 q -26 14 -39 28 q 10 0 -12 0 m 10 0 l 429 0 q 463 13 454 0 q 472 42 472 26 q 463 69 472 57 q 429 82 454 82 l 10 82 l 10 0 "},"3":{"ha":667,"x_min":-24,"x_max":582,"o":"m -14 108 q -20 78 -24 94 q 10 42 -17 63 q 78 6 40 18 q 158 -7 117 -7 q 303 22 229 -7 q 441 103 378 51 q 543 224 504 156 q 582 372 582 293 q 523 526 582 468 q 361 585 464 585 q 322 584 339 585 q 285 578 306 583 q 230 561 264 574 q 139 524 196 549 l 178 457 q 288 501 243 494 q 367 508 332 508 q 444 488 415 508 q 487 437 474 468 q 500 371 500 406 q 468 256 500 310 q 385 163 436 203 q 274 100 333 122 q 160 78 214 78 q 104 85 131 78 q 53 111 78 93 q 15 125 33 126 q -14 108 -3 124 m 111 775 q 135 759 118 763 q 168 765 153 756 q 311 839 244 817 q 424 861 378 861 q 494 817 494 861 q 462 760 494 794 q 377 683 429 725 q 263 600 325 642 q 139 524 200 558 q 113 496 118 511 q 115 465 108 481 q 140 449 122 451 q 178 457 158 446 q 329 550 257 501 q 457 647 401 599 q 545 740 513 694 q 578 824 578 785 q 533 907 578 876 q 414 938 488 938 q 282 915 354 938 q 135 843 210 893 q 105 805 104 824 q 111 775 106 786 "},"4":{"ha":667,"x_min":42,"x_max":656,"o":"m 44 267 q 52 235 42 249 q 85 222 63 222 q 115 236 106 222 q 126 264 124 250 l 271 892 q 264 926 276 914 q 236 938 251 938 q 208 929 222 938 q 188 897 193 921 l 44 267 m 363 0 q 392 8 378 -1 q 413 43 407 18 l 494 499 q 488 532 499 519 q 463 546 478 544 q 431 540 446 549 q 413 510 417 531 l 331 51 q 336 14 325 26 q 363 0 347 1 m 656 261 q 644 287 656 276 q 613 297 632 297 l 85 297 l 85 222 l 613 222 q 644 234 632 222 q 656 261 656 246 "},"5":{"ha":664,"x_min":-21,"x_max":657,"o":"m 175 -6 q 324 23 254 -6 q 446 102 393 51 q 529 219 499 153 q 560 363 560 286 q 528 478 560 428 q 439 556 496 528 q 307 585 382 585 q 217 576 256 585 q 135 553 179 568 l 126 472 q 213 494 168 488 q 313 501 257 501 q 431 460 386 501 q 476 349 476 418 q 456 257 476 304 q 395 169 435 210 q 300 103 356 128 q 175 78 244 78 q 107 94 138 78 q 58 129 76 110 q 27 147 44 143 q -7 132 10 151 q -15 97 -21 117 q 6 64 -8 78 q 78 16 32 38 q 175 -6 124 -6 m 89 511 q 93 489 88 499 q 108 474 99 479 q 126 472 118 469 l 169 511 l 257 893 l 229 938 q 193 925 210 938 q 174 893 176 913 l 89 511 m 657 899 q 648 926 657 914 q 614 938 639 938 l 229 938 l 229 863 l 614 863 q 648 874 639 863 q 657 899 657 885 "},"6":{"ha":657,"x_min":35,"x_max":574,"o":"m 560 929 q 531 944 550 944 q 492 932 511 943 q 400 864 456 911 q 286 756 344 817 q 182 631 228 694 q 106 497 139 571 q 53 345 72 424 q 35 188 35 267 l 119 222 q 135 363 119 300 q 178 481 150 425 q 246 590 207 536 q 340 701 289 650 q 444 794 392 751 q 538 867 496 836 q 563 898 557 881 q 560 929 569 915 m 228 0 q 352 40 290 0 q 464 145 414 81 q 544 283 514 210 q 574 424 574 357 q 528 542 574 503 q 393 582 482 582 q 263 558 321 582 q 163 494 206 535 q 90 403 119 454 l 35 188 q 86 54 35 108 q 228 0 138 0 m 225 82 q 148 121 176 82 q 119 222 119 160 q 151 353 119 289 q 244 458 183 417 q 389 500 304 500 q 466 481 440 500 q 492 414 492 461 q 467 309 492 367 q 401 200 442 251 q 315 115 361 149 q 225 82 268 82 "},"7":{"ha":551,"x_min":8,"x_max":506,"o":"m 282 0 q 311 10 297 0 q 331 43 325 21 l 497 889 q 458 938 506 938 l 418 906 l 249 54 q 256 14 244 28 q 282 0 267 0 m 8 901 q 19 874 8 886 q 53 863 31 863 l 458 863 l 458 938 l 53 938 q 19 926 31 938 q 8 901 8 915 "},"8":{"ha":603,"x_min":18,"x_max":588,"o":"m 236 74 q 322 101 283 74 q 383 169 360 129 q 406 246 406 210 q 390 305 406 271 q 350 375 375 339 q 297 442 325 411 l 244 499 q 183 565 215 529 q 127 642 150 601 q 104 729 104 683 q 128 822 104 783 q 190 887 151 861 q 276 925 229 913 q 368 938 322 938 q 443 929 404 938 q 515 905 482 921 q 567 864 547 889 q 588 806 588 839 q 565 733 588 771 q 500 656 542 696 q 404 575 458 617 q 288 489 350 533 q 170 388 211 435 q 114 301 129 340 q 99 229 99 261 q 136 122 99 169 q 236 74 174 74 m 226 -7 q 126 15 167 -7 q 63 70 86 36 q 28 143 39 104 q 18 218 18 182 q 36 317 18 263 q 103 434 54 372 q 244 561 151 496 q 328 623 282 588 q 415 694 374 658 q 483 759 456 729 q 510 806 510 789 q 483 832 510 821 q 419 849 456 843 q 351 854 382 854 q 280 844 318 854 q 215 810 242 835 q 188 738 188 785 q 203 673 188 703 q 242 616 218 643 q 290 561 265 589 l 340 510 q 416 421 382 467 q 470 331 450 375 q 490 246 490 286 q 473 162 490 206 q 422 80 456 118 q 340 17 389 42 q 226 -7 290 -7 "},"9":{"ha":672,"x_min":67,"x_max":642,"o":"m 67 481 q 90 385 67 417 q 153 353 113 353 q 210 364 181 353 q 274 399 240 375 q 346 463 308 424 q 425 560 383 503 q 512 694 467 617 q 606 871 557 772 l 542 871 q 436 707 486 778 q 344 585 386 636 q 269 501 303 533 q 210 453 235 468 q 172 438 186 438 q 153 451 158 438 q 149 489 149 464 q 158 574 149 521 q 183 679 167 626 q 221 764 200 732 q 313 838 258 821 q 411 854 368 854 l 547 854 l 565 854 l 565 938 l 411 938 q 317 926 364 938 q 230 889 271 915 q 157 815 189 863 q 110 716 131 776 q 78 592 90 656 q 67 481 67 529 m 422 0 q 453 10 439 0 q 471 40 467 21 l 639 901 q 635 927 642 917 q 613 938 628 938 l 533 938 l 533 790 l 388 40 q 397 10 385 21 q 422 0 408 0 "},"A":{"ha":790,"x_min":-42,"x_max":657,"o":"m -1 0 q 34 10 24 0 q 54 42 44 19 l 458 832 l 543 1021 l 568 1032 q 563 1060 572 1047 q 529 1072 553 1072 q 496 1060 503 1072 q 481 1032 489 1049 l -29 53 q -31 14 -42 28 q -1 0 -19 0 m 253 501 l 576 501 l 568 572 l 289 572 l 253 501 m 617 0 q 649 13 640 0 q 656 43 657 25 l 569 1042 l 511 1011 l 511 825 l 574 40 q 583 14 576 28 q 617 0 590 0 "},"B":{"ha":785,"x_min":19,"x_max":760,"o":"m 740 788 q 634 1003 760 933 q 243 1072 508 1072 l 257 997 q 433 986 356 997 q 563 950 510 975 q 640 886 615 925 q 658 790 665 847 q 633 703 653 740 q 564 642 613 667 q 424 604 515 617 q 185 592 333 592 l 172 539 q 452 553 344 539 q 619 599 560 568 q 706 676 679 629 q 740 788 732 724 m 679 269 q 663 399 690 340 q 570 501 635 458 q 407 568 506 544 q 178 592 308 592 l 172 528 q 426 493 329 528 q 566 401 524 458 q 599 279 608 344 q 526 154 589 199 q 355 93 464 110 q 96 76 246 76 l 54 0 q 345 17 229 0 q 531 67 461 33 q 635 151 601 100 q 679 269 669 201 m 24 51 q 31 15 19 31 q 63 0 42 0 l 106 47 l 278 1021 l 243 1072 q 210 1063 221 1072 q 194 1028 200 1053 l 24 51 "},"C":{"ha":796,"x_min":69,"x_max":832,"o":"m 281 -7 q 476 60 379 -7 q 674 279 572 128 q 705 331 700 318 q 710 350 710 343 q 699 374 710 365 q 674 383 689 383 q 640 371 654 383 q 606 326 626 358 q 432 133 508 189 q 279 76 356 76 q 200 101 228 76 q 162 160 172 125 q 151 226 151 196 q 160 355 151 286 q 180 484 169 424 q 196 576 190 544 q 224 694 207 635 q 272 806 242 753 q 355 901 303 860 q 487 967 407 943 q 685 990 567 990 q 762 991 738 990 q 797 994 786 992 q 815 1001 807 997 q 831 1029 829 1008 q 818 1060 832 1050 q 800 1067 811 1065 q 763 1071 789 1069 q 686 1072 738 1072 q 458 1044 551 1072 q 302 967 364 1017 q 203 853 240 918 q 144 713 165 788 q 108 558 122 638 q 101 508 107 546 q 87 421 94 471 q 74 319 79 371 q 69 228 69 268 q 89 118 69 172 q 154 28 108 64 q 281 -7 200 -7 "},"D":{"ha":825,"x_min":18,"x_max":769,"o":"m 753 568 q 744 785 769 692 q 658 943 718 879 q 507 1040 597 1007 q 301 1072 417 1072 l 244 1072 l 233 985 l 306 985 q 519 939 432 985 q 646 803 606 893 q 669 579 686 713 q 581 301 650 413 q 406 133 513 189 q 165 76 299 76 l 78 76 l 61 0 l 165 0 q 447 66 324 0 q 650 258 571 132 q 753 568 729 385 m 21 44 q 28 13 18 26 q 60 0 38 0 q 96 15 88 0 q 106 42 104 29 l 278 1021 q 276 1058 281 1044 q 244 1072 271 1072 q 208 1060 218 1072 q 194 1028 199 1047 l 21 44 "},"E":{"ha":719,"x_min":18,"x_max":782,"o":"m 21 44 q 28 13 18 26 q 60 0 38 0 q 96 15 88 0 q 106 42 104 29 l 278 1021 q 276 1058 281 1044 q 244 1072 271 1072 q 208 1060 218 1072 q 194 1028 199 1047 l 21 44 m 614 40 q 605 66 614 56 q 571 76 596 76 l 74 76 l 61 0 l 571 0 q 605 13 596 0 q 614 40 614 25 m 647 539 q 638 566 647 554 q 604 578 629 578 l 153 578 l 140 501 l 604 501 q 638 513 629 501 q 647 539 647 525 m 782 1035 q 773 1061 782 1050 q 739 1072 764 1072 l 244 1072 l 233 997 l 739 997 q 773 1009 764 997 q 782 1035 782 1021 "},"F":{"ha":694,"x_min":18,"x_max":764,"o":"m 21 44 q 28 13 18 26 q 60 0 38 0 q 96 15 88 0 q 106 42 104 29 l 278 1021 q 276 1058 281 1044 q 244 1072 271 1072 q 208 1060 218 1072 q 194 1028 199 1047 l 21 44 m 640 539 q 631 566 640 554 q 597 578 622 578 l 165 578 l 153 501 l 597 501 q 631 513 622 501 q 640 539 640 525 m 764 1035 q 755 1061 764 1050 q 721 1072 746 1072 l 244 1072 l 233 997 l 721 997 q 755 1009 746 997 q 764 1035 764 1021 "},"G":{"ha":831,"x_min":69,"x_max":831,"o":"m 221 -7 q 338 32 279 -7 q 457 136 397 71 q 576 284 517 201 q 692 454 635 367 l 711 578 q 686 573 697 578 q 662 553 675 568 q 628 507 649 539 q 571 421 607 475 q 523 349 553 393 q 456 257 493 306 q 379 166 419 208 q 300 97 339 124 q 226 69 261 69 q 181 92 197 69 q 158 150 164 115 q 151 222 151 185 q 160 348 151 276 q 180 488 168 419 q 200 600 192 556 q 228 707 211 651 q 278 814 246 763 q 363 907 310 865 q 497 973 415 949 q 696 997 579 997 l 789 997 q 819 1008 808 997 q 831 1035 831 1018 q 821 1061 831 1050 q 796 1072 811 1072 l 699 1072 q 468 1044 564 1072 q 309 967 372 1017 q 207 853 246 918 q 145 713 168 788 q 108 558 122 638 q 101 508 107 546 q 87 421 94 471 q 74 320 79 371 q 69 231 69 269 q 85 119 69 174 q 133 28 100 64 q 221 -7 165 -7 m 607 0 q 645 15 636 -1 q 657 44 654 31 l 743 533 q 740 566 746 554 q 713 578 733 578 q 675 567 688 578 q 658 533 663 557 l 572 44 q 576 16 571 31 q 607 0 582 1 "},"H":{"ha":853,"x_min":18,"x_max":835,"o":"m 60 0 q 96 15 88 0 q 106 42 104 29 l 278 1021 q 273 1058 281 1044 q 244 1072 265 1072 q 210 1060 221 1072 q 194 1028 199 1047 l 21 44 q 28 13 18 26 q 60 0 38 0 m 151 501 l 703 501 l 717 578 l 165 578 l 151 501 m 614 0 q 647 13 638 0 q 658 36 657 25 l 832 1025 q 826 1059 835 1046 q 793 1072 818 1072 q 761 1060 771 1072 q 749 1036 751 1049 l 576 44 q 580 15 574 31 q 614 0 586 0 "},"I":{"ha":440,"x_min":21,"x_max":432,"o":"m 99 42 l 183 42 l 354 1024 l 271 1024 l 99 42 m 21 38 q 31 12 21 24 q 64 0 40 0 l 211 0 q 245 12 236 0 q 254 38 254 24 q 245 65 254 53 q 211 76 236 76 l 64 76 q 31 65 40 76 q 21 38 21 53 m 200 1036 q 209 1010 200 1022 q 243 997 218 997 l 389 997 q 423 1010 414 997 q 432 1036 432 1022 q 423 1062 432 1051 q 389 1072 414 1072 l 243 1072 q 209 1062 218 1072 q 200 1036 200 1051 "},"J":{"ha":686,"x_min":-74,"x_max":771,"o":"m -74 40 q -60 11 -74 22 q -33 0 -47 0 q 28 1 -7 0 q 96 3 64 1 q 143 6 128 4 q 293 61 236 17 q 385 194 350 106 q 444 424 419 282 l 551 1025 l 467 1025 l 365 447 q 322 256 346 335 q 255 133 297 176 q 138 81 213 89 q 99 78 121 79 q 51 77 76 78 q 4 76 26 76 q -33 76 -18 76 q -60 67 -47 76 q -74 40 -74 57 m 249 1035 q 258 1009 249 1021 q 292 997 268 997 l 728 997 q 762 1009 753 997 q 771 1035 771 1021 q 762 1061 771 1050 q 728 1072 753 1072 l 292 1072 q 258 1061 268 1072 q 249 1035 249 1050 "},"K":{"ha":743,"x_min":19,"x_max":789,"o":"m 789 1036 q 781 1060 789 1049 q 754 1072 772 1072 q 728 1065 742 1072 q 703 1047 714 1058 l 269 651 l 194 590 l 194 574 l 282 569 l 756 989 q 780 1013 771 1000 q 789 1036 789 1025 m 619 0 q 642 7 631 0 q 657 28 653 14 q 657 47 660 38 q 646 69 654 57 l 288 585 l 194 588 l 196 569 l 254 486 l 571 32 q 591 10 579 19 q 619 0 603 0 m 61 0 q 97 17 88 0 q 107 51 106 35 l 279 1021 q 276 1058 282 1044 q 246 1072 269 1072 q 210 1060 221 1072 q 196 1028 200 1047 l 24 53 q 29 17 19 35 q 61 0 39 0 "},"L":{"ha":653,"x_min":18,"x_max":592,"o":"m 21 44 q 28 13 18 26 q 60 0 38 0 q 94 15 88 0 q 104 42 101 29 l 278 1021 q 275 1058 281 1044 q 244 1072 269 1072 q 209 1060 219 1072 q 194 1028 199 1047 l 21 44 m 592 40 q 582 66 592 56 q 550 76 572 76 l 60 76 l 60 0 l 550 0 q 582 13 572 0 q 592 40 592 25 "},"M":{"ha":1360,"x_min":-35,"x_max":1219,"o":"m 1 0 q 30 10 15 0 q 54 42 44 19 l 458 842 l 513 978 l 513 1072 q 482 1060 490 1072 q 465 1032 474 1049 l -24 63 q -33 36 -31 49 q -29 17 -35 24 q -17 5 -25 10 q 1 0 -8 0 m 544 58 q 554 16 546 32 q 589 0 563 0 l 614 100 l 608 254 l 554 1033 q 544 1060 553 1049 q 511 1072 535 1072 l 489 964 l 489 835 l 544 58 m 649 53 l 1044 843 l 1108 971 l 1100 1072 q 1072 1058 1082 1072 q 1056 1029 1063 1043 l 661 246 l 597 100 l 589 0 q 626 17 614 0 q 649 53 639 35 m 1179 0 q 1209 13 1199 0 q 1218 50 1219 26 l 1153 1026 q 1143 1059 1151 1046 q 1099 1072 1135 1072 l 1081 1003 l 1086 842 l 1135 46 q 1145 15 1138 29 q 1179 0 1153 0 "},"N":{"ha":853,"x_min":18,"x_max":835,"o":"m 574 29 q 590 9 579 18 q 619 0 601 0 l 611 111 l 579 246 l 293 1039 q 278 1061 290 1050 q 244 1072 267 1072 l 244 974 l 274 853 l 574 29 m 60 0 q 96 16 88 0 q 106 46 104 32 l 247 851 l 264 1010 l 244 1072 q 208 1060 218 1072 q 194 1028 199 1047 l 21 44 q 28 13 18 26 q 60 0 38 0 m 800 1072 q 765 1060 775 1072 q 751 1028 754 1047 l 614 246 l 600 79 l 617 0 q 651 15 644 0 q 660 42 658 29 l 832 1021 q 829 1058 835 1044 q 800 1072 824 1072 "},"O":{"ha":819,"x_min":69,"x_max":790,"o":"m 269 -18 q 419 28 347 -18 q 554 151 492 74 q 665 325 617 228 q 744 526 714 422 q 783 725 775 629 q 778 860 790 796 q 731 976 765 925 q 638 1055 697 1026 q 492 1082 579 1083 q 319 1032 393 1081 q 194 893 244 983 q 113 676 143 803 q 78 471 88 572 q 78 281 69 369 q 110 126 86 193 q 174 20 135 58 q 269 -18 214 -18 m 275 58 q 216 92 240 58 q 178 185 192 126 q 160 319 164 243 q 165 478 157 394 q 192 646 172 563 q 256 840 218 761 q 350 960 293 918 q 486 1003 407 1001 q 601 983 557 1004 q 669 922 646 961 q 699 829 692 882 q 701 714 706 776 q 667 542 694 632 q 595 366 639 451 q 498 210 551 281 q 388 99 444 140 q 275 58 331 58 "},"P":{"ha":771,"x_min":18,"x_max":804,"o":"m 790 785 q 740 956 804 893 q 548 1047 675 1019 q 244 1072 421 1074 l 236 997 q 518 978 411 999 q 671 913 625 958 q 706 793 717 868 q 656 692 697 733 q 542 625 614 650 q 374 589 471 600 q 161 578 278 578 l 150 501 q 399 515 286 501 q 595 559 511 528 q 729 645 679 590 q 790 785 779 700 m 60 -7 q 94 11 88 -7 q 104 42 101 29 l 278 1021 q 276 1058 281 1044 q 244 1072 271 1072 q 208 1060 218 1072 q 194 1028 199 1047 l 21 44 q 28 10 18 26 q 60 -7 38 -7 "},"Q":{"ha":819,"x_min":67,"x_max":794,"o":"m 550 -74 q 568 -44 567 -64 q 560 -10 569 -24 l 381 249 q 349 273 369 267 q 313 264 329 279 q 299 238 297 253 q 314 203 300 222 l 485 -47 q 515 -74 497 -65 q 550 -74 533 -83 m 269 -10 q 420 35 347 -10 q 556 154 493 79 q 667 324 618 229 q 748 522 717 419 q 788 719 779 624 q 782 856 794 790 q 735 974 769 922 q 644 1054 701 1025 q 501 1082 586 1083 q 320 1033 397 1081 q 190 897 243 986 q 107 682 138 808 q 74 477 82 578 q 75 288 67 376 q 108 133 83 200 q 174 28 133 67 q 269 -10 214 -10 m 275 67 q 215 100 240 67 q 176 192 190 133 q 157 324 161 250 q 160 483 153 399 q 186 650 168 567 q 252 843 213 765 q 352 961 292 921 q 497 1003 413 1001 q 606 982 564 1004 q 672 919 649 960 q 703 826 696 879 q 704 710 710 772 q 670 539 699 628 q 597 366 642 450 q 499 215 553 282 q 388 107 446 147 q 275 67 331 67 "},"R":{"ha":771,"x_min":19,"x_max":783,"o":"m 767 785 q 719 957 783 894 q 533 1046 656 1019 q 244 1072 410 1072 l 244 997 q 494 976 392 997 q 646 910 596 956 q 685 793 696 865 q 609 671 674 718 q 434 601 544 624 q 175 578 324 578 l 164 507 q 392 519 288 507 q 576 560 496 531 q 705 644 656 590 q 767 785 754 699 m 617 0 q 640 8 629 0 q 656 25 651 15 q 657 48 658 35 q 649 71 656 61 l 257 543 l 186 524 l 240 433 l 576 29 q 597 7 588 14 q 617 0 607 0 m 60 0 q 96 17 88 0 q 107 51 104 33 l 278 1021 q 276 1058 281 1044 q 244 1072 271 1072 q 208 1060 218 1072 q 194 1028 199 1047 l 24 54 q 28 17 19 33 q 60 0 38 0 "},"S":{"ha":651,"x_min":-43,"x_max":676,"o":"m 129 0 q 284 15 214 0 q 408 58 354 31 q 499 124 463 86 q 555 208 536 163 q 574 301 574 253 q 549 424 574 369 q 484 521 525 478 q 392 599 443 564 l 342 632 q 222 731 258 686 q 185 825 185 775 q 226 926 185 889 q 339 981 268 964 q 497 997 410 997 l 639 997 q 665 1008 654 997 q 676 1036 676 1018 q 668 1062 676 1054 q 650 1071 660 1069 q 638 1072 640 1072 l 485 1072 q 280 1042 367 1072 q 146 954 193 1011 q 99 819 99 897 q 118 736 99 778 q 175 656 138 694 q 265 581 213 617 l 317 546 q 440 438 390 496 q 489 300 489 379 q 467 212 489 253 q 400 140 444 171 q 290 93 356 110 q 139 76 225 76 l -3 76 q -31 66 -19 76 q -43 36 -43 56 q -34 10 -43 18 q -15 1 -25 3 q -3 0 -4 0 l 129 0 "},"T":{"ha":735,"x_min":61,"x_max":846,"o":"m 275 0 q 310 15 303 0 q 319 42 318 29 l 492 1025 l 407 1025 l 238 44 q 244 13 235 26 q 275 0 253 0 m 61 1035 q 70 1009 61 1021 q 104 997 79 997 l 804 997 q 837 1009 828 997 q 846 1035 846 1021 q 837 1061 846 1050 q 804 1072 828 1072 l 104 1072 q 70 1061 79 1072 q 61 1035 61 1050 "},"U":{"ha":843,"x_min":26,"x_max":826,"o":"m 167 -7 q 306 42 238 -7 q 439 174 375 92 q 560 357 503 257 q 669 558 618 457 l 721 629 l 765 858 l 710 858 q 679 741 697 794 q 638 642 661 688 q 592 556 615 596 q 546 481 568 517 q 492 392 524 444 q 422 283 460 339 q 343 179 385 228 q 260 100 301 131 q 179 69 218 69 q 131 104 142 69 q 124 192 119 139 q 139 297 129 244 l 271 1026 q 265 1058 274 1044 q 236 1072 256 1071 q 203 1058 217 1072 q 186 1024 190 1043 l 56 301 q 60 67 26 140 q 167 -7 94 -7 m 604 -1 q 632 8 619 -1 q 649 36 644 18 l 824 1029 q 817 1060 826 1049 q 783 1072 808 1072 q 751 1060 761 1072 q 739 1033 742 1049 l 565 44 q 574 10 563 22 q 604 -1 586 -1 "},"V":{"ha":726,"x_min":140,"x_max":779,"o":"m 290 42 l 765 1001 q 774 1047 779 1029 q 754 1071 769 1064 q 719 1067 738 1078 q 690 1033 701 1057 l 296 236 l 226 64 l 240 0 q 273 12 264 0 q 290 42 282 24 m 196 54 q 208 16 199 32 q 240 0 218 0 l 269 61 l 267 243 l 225 1033 q 215 1059 224 1046 q 179 1072 207 1072 q 149 1060 157 1072 q 142 1029 140 1049 l 196 54 "},"W":{"ha":1288,"x_min":140,"x_max":1338,"o":"m 854 42 l 1328 1001 q 1338 1033 1338 1019 q 1331 1056 1338 1047 q 1315 1069 1325 1065 q 1281 1067 1297 1076 q 1253 1035 1264 1057 l 868 256 l 781 51 l 801 0 q 835 12 825 0 q 854 42 846 24 m 196 47 q 210 14 199 28 q 243 0 221 0 l 265 61 l 267 249 l 225 1033 q 215 1059 224 1046 q 179 1072 207 1072 q 149 1060 157 1072 q 142 1029 140 1049 l 196 47 m 293 43 l 686 842 l 758 1021 l 740 1072 q 706 1060 718 1072 q 688 1033 694 1047 l 300 243 l 219 67 l 243 0 q 276 15 265 0 q 293 43 286 29 m 763 36 q 773 10 764 19 q 801 0 782 0 l 826 50 l 833 260 l 788 1033 q 777 1060 786 1049 q 740 1072 768 1072 l 718 1018 l 717 843 l 763 36 "},"X":{"ha":726,"x_min":-47,"x_max":778,"o":"m -33 10 q -11 0 -24 3 q 14 1 1 -3 q 35 18 26 6 l 371 482 l 396 499 l 764 1004 q 776 1040 778 1024 q 764 1064 775 1056 q 732 1073 751 1075 q 699 1051 713 1071 l 360 586 l 336 572 l -36 63 q -45 33 -47 49 q -33 10 -43 18 m 564 3 q 585 26 578 10 q 582 72 593 43 l 218 1042 q 190 1072 210 1065 q 156 1071 171 1078 q 135 1050 140 1065 q 139 1011 129 1035 l 499 46 q 531 5 511 14 q 564 3 550 -4 "},"Y":{"ha":725,"x_min":140,"x_max":776,"o":"m 758 1065 q 726 1072 744 1076 q 696 1051 707 1067 l 421 676 l 335 550 l 378 481 l 764 1004 q 775 1039 776 1022 q 758 1065 774 1056 m 283 0 q 319 15 311 0 q 331 42 328 29 l 424 578 l 340 578 l 246 44 q 251 13 242 26 q 283 0 261 0 m 165 1069 q 144 1047 149 1064 q 147 1011 140 1031 l 339 507 l 392 576 l 361 678 l 225 1039 q 199 1069 217 1061 q 165 1069 181 1076 "},"Z":{"ha":756,"x_min":-10,"x_max":796,"o":"m -1 67 q -10 39 -10 54 q -1 12 -10 24 q 25 0 8 0 q 54 8 44 0 q 76 33 64 17 l 785 1003 q 794 1034 796 1018 q 783 1061 793 1050 q 757 1072 772 1072 q 733 1065 743 1072 q 713 1043 724 1058 l -1 67 m 622 38 q 613 65 622 53 q 579 76 604 76 l 153 76 l 25 74 l 25 0 l 579 0 q 613 12 604 0 q 622 38 622 24 m 161 1035 q 171 1009 161 1021 q 204 997 181 997 l 635 997 l 757 999 l 757 1072 l 204 1072 q 171 1061 181 1072 q 161 1035 161 1050 "},"a":{"ha":651,"x_min":-17,"x_max":557,"o":"m 71 -7 q 165 21 119 -7 q 256 97 210 49 q 351 208 303 146 q 406 285 376 239 q 460 387 435 332 q 501 494 486 442 l 450 494 q 374 378 415 438 q 282 253 333 318 q 160 118 207 158 q 89 78 113 78 q 69 94 72 78 q 67 129 67 110 q 78 214 67 161 q 109 319 90 267 q 149 404 128 372 q 241 478 186 461 q 339 494 296 494 l 483 494 l 483 578 l 339 578 q 200 552 268 578 q 85 456 132 526 q 35 356 58 417 q -2 233 13 296 q -17 121 -17 169 q 7 25 -17 57 q 71 -7 31 -7 m 418 0 q 457 16 450 0 q 465 38 464 32 l 551 521 q 546 564 557 550 q 507 578 535 578 l 450 578 l 450 368 l 381 38 q 385 14 379 28 q 418 0 390 0 "},"b":{"ha":633,"x_min":-18,"x_max":553,"o":"m 208 0 q 373 42 307 0 q 478 151 439 83 q 535 299 518 218 q 553 457 553 379 q 527 553 553 521 q 457 585 501 585 q 370 556 415 585 q 279 478 325 526 q 192 372 233 431 q 114 253 150 314 q 53 142 78 193 l 53 76 l 86 76 q 154 191 115 132 q 236 305 193 250 q 319 404 279 360 q 392 474 360 449 q 440 500 424 500 q 468 484 464 500 q 472 440 472 468 q 459 320 472 383 q 416 201 446 257 q 335 111 386 146 q 208 76 285 76 l 53 76 l 53 0 l 208 0 m 10 0 l 86 0 l 86 160 l 240 1025 q 235 1060 244 1049 q 210 1072 225 1072 q 178 1061 193 1072 q 158 1025 164 1050 l -17 36 q -11 11 -18 22 q 10 0 -4 0 "},"c":{"ha":497,"x_min":-14,"x_max":464,"o":"m 111 -7 q 229 28 171 -7 q 335 117 288 64 q 406 222 382 169 q 406 252 413 238 q 385 272 399 267 q 352 272 367 281 q 331 249 338 263 q 299 200 321 229 q 249 143 278 171 q 188 97 219 115 q 124 78 156 78 q 82 96 94 78 q 69 156 69 114 q 75 201 69 169 q 90 270 81 232 q 113 344 100 308 q 143 404 126 381 q 251 492 188 468 q 428 489 315 517 q 453 500 443 485 q 464 526 464 515 q 456 555 464 544 q 428 571 449 565 q 215 563 304 597 q 78 456 126 528 q 31 357 51 417 q -2 238 10 297 q -14 142 -14 179 q 19 28 -14 63 q 111 -7 51 -7 "},"d":{"ha":736,"x_min":-17,"x_max":665,"o":"m 483 0 q 569 17 536 -7 q 629 82 603 40 q 654 126 643 106 q 665 156 665 146 q 655 183 665 174 q 631 193 644 193 q 606 183 617 193 q 582 151 594 172 l 572 135 q 538 90 553 104 q 506 76 522 76 q 492 101 494 76 q 492 160 489 126 q 499 218 494 193 l 642 1028 q 635 1062 646 1051 q 608 1072 625 1072 q 577 1060 593 1072 q 558 1028 561 1049 l 418 240 q 408 124 407 176 q 428 39 410 72 q 483 0 447 6 m 71 -7 q 165 21 119 -7 q 253 93 210 49 q 335 186 296 138 q 400 281 369 231 q 457 387 431 332 q 506 494 483 442 l 444 494 q 374 379 413 435 q 289 264 336 324 q 163 121 213 165 q 89 76 113 76 q 69 92 72 76 q 67 126 67 107 q 76 211 67 158 q 103 317 86 264 q 142 401 121 369 q 233 475 179 457 q 328 493 286 493 l 483 493 l 503 578 l 328 578 q 192 550 258 578 q 78 453 125 522 q 30 352 51 413 q -4 229 8 292 q -17 119 -17 167 q 7 24 -17 56 q 71 -7 31 -7 "},"e":{"ha":501,"x_min":-17,"x_max":436,"o":"m 138 -7 q 242 16 197 -7 q 316 67 288 39 q 353 106 344 94 q 378 160 381 142 q 365 186 376 178 q 333 194 351 197 q 290 160 314 192 q 260 128 282 149 q 208 90 239 107 q 139 74 176 74 q 84 97 100 74 q 69 161 68 119 q 85 247 72 199 q 117 344 97 296 q 160 428 136 393 q 228 485 190 471 q 297 500 267 500 q 335 493 319 500 q 350 475 350 486 q 319 426 350 454 q 210 350 288 399 q 149 313 179 329 q 94 283 119 296 q 51 261 69 271 l 35 178 q 83 201 47 185 q 160 240 118 218 q 235 278 203 261 q 349 354 304 315 q 415 431 393 393 q 436 499 436 468 q 415 544 436 526 q 363 570 394 561 q 300 579 332 579 q 185 551 242 579 q 93 468 129 524 q 46 383 68 433 q 8 280 24 333 q -11 176 -7 226 q 1 71 -17 111 q 56 12 19 31 q 138 -7 92 -7 "},"f":{"ha":379,"x_min":-25,"x_max":565,"o":"m 88 0 q 118 15 108 0 q 131 44 128 31 l 272 854 q 294 919 278 888 q 335 970 311 950 q 386 990 360 990 l 525 990 q 556 1004 546 990 q 565 1032 565 1018 q 556 1058 565 1043 q 525 1072 546 1072 l 386 1072 q 305 1052 344 1072 q 235 988 265 1032 q 192 869 206 943 l 46 46 q 55 16 44 32 q 88 0 65 0 m -25 542 q -16 515 -25 526 q 18 503 -7 503 l 339 503 q 372 515 363 503 q 381 542 381 526 q 372 567 381 557 q 339 578 363 578 l 18 578 q -16 567 -7 578 q -25 542 -25 557 "},"g":{"ha":661,"x_min":-96,"x_max":558,"o":"m -96 -454 q -80 -483 -96 -472 q -33 -493 -64 -493 q 3 -492 -22 -493 q 59 -488 28 -490 q 119 -484 90 -486 q 169 -479 149 -482 q 287 -435 238 -468 q 367 -350 336 -401 q 424 -194 407 -285 q 460 1 442 -103 l 553 519 q 549 563 558 549 q 515 578 539 578 l 490 578 l 438 326 l 375 1 q 346 -165 358 -83 q 297 -306 333 -247 q 240 -366 275 -342 q 147 -397 204 -390 q 106 -401 133 -399 q 48 -406 78 -404 q -6 -410 18 -408 q -40 -411 -31 -411 q -81 -424 -65 -411 q -96 -454 -96 -436 m -15 121 q 8 25 -15 57 q 72 -7 32 -7 q 168 19 124 -7 q 254 90 213 46 q 336 186 296 135 q 428 335 386 249 q 501 497 469 421 l 453 497 q 376 379 417 439 q 290 263 335 319 q 199 154 238 194 q 133 96 160 114 q 90 78 107 78 q 74 90 81 78 q 68 129 68 103 q 77 214 68 161 q 103 319 86 267 q 140 404 119 372 q 233 478 178 461 q 331 494 288 494 l 515 494 l 515 578 l 331 578 q 237 567 283 578 q 149 529 190 556 q 76 456 108 503 q 29 356 50 417 q -3 233 8 296 q -15 121 -15 169 "},"h":{"ha":651,"x_min":-18,"x_max":561,"o":"m 15 1 q 46 3 36 -4 q 63 25 56 11 l 240 1028 q 233 1062 244 1051 q 207 1072 222 1072 q 175 1062 190 1072 q 157 1028 160 1051 l -14 60 q -12 20 -18 33 q 15 1 -7 7 m 439 0 q 478 16 471 0 q 486 38 485 32 l 551 386 q 556 479 561 433 q 528 555 551 525 q 457 585 504 585 q 364 555 410 585 q 274 477 318 525 q 188 372 229 429 q 112 260 147 315 q 47 161 76 204 l 63 25 q 136 144 96 81 q 220 272 176 208 q 306 388 264 335 q 383 472 347 440 q 444 503 419 503 q 471 483 465 503 q 474 435 476 463 q 467 386 471 408 l 403 38 q 406 12 400 24 q 439 0 413 0 "},"i":{"ha":286,"x_min":4,"x_max":235,"o":"m 44 0 q 76 12 60 0 q 96 46 92 24 l 182 528 q 174 565 186 553 q 147 578 163 578 q 114 567 131 578 q 94 533 97 556 l 8 46 q 17 12 4 24 q 44 0 29 0 m 178 704 q 218 722 201 704 q 235 764 235 740 q 218 806 235 789 q 178 822 201 822 q 139 804 154 822 q 124 764 124 786 q 140 722 124 740 q 178 704 156 704 "},"j":{"ha":301,"x_min":-436,"x_max":236,"o":"m -436 -457 q -419 -485 -436 -475 q -372 -494 -403 -494 q -341 -494 -361 -494 q -297 -492 -321 -493 q -249 -490 -274 -492 q -204 -485 -225 -487 q -89 -441 -137 -475 q -10 -358 -40 -407 q 35 -258 18 -314 q 63 -138 51 -203 q 86 -6 74 -74 l 179 524 q 172 564 185 550 q 142 578 160 578 q 113 566 128 578 q 93 528 97 554 l 1 -6 q -28 -172 -12 -89 q -78 -312 -43 -254 q -135 -374 -100 -349 q -231 -406 -171 -399 q -262 -408 -243 -407 q -302 -410 -282 -410 q -341 -412 -322 -411 q -371 -412 -360 -412 q -419 -426 -403 -412 q -436 -457 -436 -439 m 179 703 q 219 721 203 703 q 236 764 236 739 q 219 807 236 790 q 179 824 203 824 q 141 807 157 824 q 125 764 125 790 q 141 721 125 739 q 179 703 157 703 "},"k":{"ha":590,"x_min":-18,"x_max":500,"o":"m 18 0 q 51 10 38 0 q 69 43 65 19 l 243 1025 q 235 1062 247 1051 q 203 1072 222 1072 q 174 1060 185 1072 q 158 1026 163 1047 l -15 43 q -8 12 -18 24 q 18 0 3 0 m 433 -1 q 457 6 446 -1 q 472 26 468 13 q 473 45 475 35 q 463 68 471 56 l 325 265 q 461 370 422 318 q 500 483 500 422 q 492 533 500 510 q 464 570 483 556 q 411 585 444 585 q 304 549 361 585 q 190 452 247 514 q 81 310 133 390 l 38 64 q 131 260 78 178 q 237 397 183 343 q 331 476 290 450 q 386 501 372 501 q 408 492 401 501 q 415 471 415 482 q 403 422 415 443 q 357 376 390 400 q 263 317 324 351 q 229 286 240 304 q 238 239 218 268 l 385 29 q 406 8 393 18 q 433 -1 418 -1 "},"l":{"ha":275,"x_min":4,"x_max":271,"o":"m 50 0 q 76 9 64 0 q 93 36 89 18 l 267 1029 q 257 1060 271 1049 q 226 1072 243 1072 q 199 1065 213 1072 q 183 1038 186 1057 l 8 44 q 18 11 4 22 q 50 0 32 0 "},"m":{"ha":1026,"x_min":-17,"x_max":935,"o":"m 19 0 q 47 5 39 -1 q 60 18 54 11 l 156 533 q 151 566 158 554 q 122 578 143 578 q 97 573 107 578 q 80 558 86 568 q 71 533 74 549 l -11 60 q -12 19 -17 33 q 19 0 -7 4 m 415 0 q 441 7 433 0 q 454 24 449 14 l 525 385 q 531 477 535 432 q 506 552 528 522 q 432 582 483 582 q 347 549 390 582 q 256 460 303 517 q 163 332 210 404 q 69 179 115 260 l 60 18 q 145 159 101 89 q 231 291 189 229 q 309 400 272 353 q 374 474 346 447 q 421 501 403 501 q 448 481 442 501 q 451 434 454 461 q 444 385 449 407 l 388 60 q 385 17 382 33 q 415 0 389 0 m 814 0 q 850 12 840 0 q 861 38 860 24 l 925 386 q 931 479 935 433 q 904 555 928 525 q 831 585 881 585 q 740 551 786 585 q 648 460 694 518 q 555 331 601 403 q 463 179 508 258 l 454 24 q 531 156 490 89 q 614 285 572 224 q 694 397 656 347 q 764 474 732 446 q 818 503 796 503 q 845 483 839 503 q 849 435 851 463 q 842 386 846 408 l 781 50 q 782 16 776 32 q 814 0 788 0 "},"n":{"ha":653,"x_min":-17,"x_max":563,"o":"m 440 0 q 476 12 467 0 q 489 38 486 24 l 553 386 q 558 479 563 433 q 531 555 554 525 q 458 585 508 585 q 361 553 410 585 q 264 465 313 521 q 167 338 215 410 q 69 188 118 267 l 60 18 q 135 141 94 75 q 220 271 176 207 q 306 388 264 335 q 385 472 349 440 q 446 503 421 503 q 472 483 467 503 q 475 435 478 463 q 468 386 472 408 l 407 50 q 409 16 404 32 q 440 0 414 0 m 19 0 q 46 3 39 -1 q 60 18 53 8 l 156 533 q 151 566 158 554 q 122 578 143 578 q 95 573 106 578 q 79 558 85 568 q 71 533 74 549 l -11 60 q -12 19 -17 33 q 19 0 -7 4 "},"o":{"ha":546,"x_min":-14,"x_max":468,"o":"m 125 -11 q 222 16 174 -11 q 315 88 271 43 q 394 189 360 133 q 448 303 428 244 q 468 414 468 361 q 444 500 468 463 q 376 558 419 538 q 279 579 333 579 q 162 544 215 579 q 69 452 108 510 q 8 322 29 394 q -14 175 -14 250 q 6 72 -14 113 q 56 10 25 31 q 125 -11 88 -11 m 146 74 q 88 98 110 74 q 67 182 67 122 q 86 300 67 243 q 138 402 106 357 q 210 474 171 447 q 286 500 249 500 q 359 472 335 500 q 383 404 383 443 q 358 295 383 353 q 295 188 333 238 q 217 106 257 138 q 146 74 176 74 "},"p":{"ha":633,"x_min":-107,"x_max":554,"o":"m -68 -494 q -38 -485 -53 -494 q -19 -457 -24 -475 l 157 539 q 148 568 160 558 q 121 578 136 578 q 91 568 106 578 q 72 539 76 558 l -104 -456 q -95 -485 -107 -475 q -68 -494 -83 -494 m 554 457 q 530 553 554 521 q 457 585 506 585 q 368 556 415 585 q 272 476 321 526 q 178 360 224 425 q 94 224 132 296 q 29 81 56 151 l 89 81 q 142 181 107 125 q 222 292 178 236 q 309 396 265 349 q 388 472 353 443 q 442 500 424 500 q 469 484 465 500 q 472 449 472 468 q 435 240 472 322 q 335 119 397 158 q 200 81 274 81 l 47 81 l 36 0 l 200 0 q 349 34 283 0 q 461 130 415 68 q 531 275 507 192 q 554 457 554 358 "},"q":{"ha":651,"x_min":-15,"x_max":568,"o":"m -15 121 q 8 25 -15 57 q 72 -7 32 -7 q 165 20 121 -7 q 252 92 210 47 q 336 188 294 136 q 402 283 369 229 q 465 392 435 336 q 518 494 494 447 l 453 494 q 376 378 418 438 q 283 253 335 318 q 161 118 208 158 q 90 78 114 78 q 71 94 74 78 q 68 129 68 110 q 77 214 68 161 q 103 319 86 267 q 140 404 119 372 q 233 478 178 461 q 331 494 288 494 l 485 494 l 485 578 l 331 578 q 192 552 260 578 q 76 456 124 526 q 29 356 50 417 q -3 233 8 296 q -15 121 -15 169 m 558 -267 q 529 -255 549 -256 q 490 -271 510 -254 l 346 -387 l 375 -471 l 543 -332 q 565 -297 563 -317 q 558 -267 568 -278 m 326 -494 q 351 -487 339 -494 q 375 -471 364 -479 l 553 525 q 549 565 558 551 q 513 578 540 578 l 481 578 l 296 -450 q 302 -483 292 -472 q 326 -494 313 -494 "},"r":{"ha":515,"x_min":-18,"x_max":500,"o":"m 460 393 q 491 409 482 394 q 500 438 500 424 q 487 510 500 476 q 451 564 474 543 q 397 585 428 585 q 310 556 357 585 q 204 457 263 526 q 71 265 146 388 l 43 90 q 205 337 135 249 q 321 461 275 425 q 385 497 367 497 q 408 475 401 497 q 415 431 415 453 q 428 403 415 415 q 460 393 442 392 m 19 0 q 51 11 36 0 q 69 44 65 22 l 153 528 q 146 565 157 553 q 119 578 135 578 q 90 567 104 578 q 71 533 75 556 l -15 44 q -7 11 -18 22 q 19 0 4 0 "},"s":{"ha":500,"x_min":-50,"x_max":426,"o":"m 165 0 q 284 22 238 0 q 354 79 331 44 q 378 150 378 114 q 355 228 378 197 q 297 282 332 260 l 167 372 q 130 404 147 388 q 113 439 113 421 q 132 478 113 463 q 208 494 151 494 l 379 494 q 411 505 396 494 q 426 536 426 515 q 408 572 426 567 q 354 578 390 578 l 214 578 q 113 559 154 578 q 50 509 71 540 q 29 439 29 478 q 57 353 29 388 q 121 296 85 319 l 243 213 q 275 184 261 200 q 289 147 289 168 q 265 101 289 121 q 182 82 240 82 l 1 82 q -34 74 -18 82 q -50 42 -50 65 q -34 9 -50 18 q 0 0 -18 0 l 165 0 "},"t":{"ha":397,"x_min":-14,"x_max":407,"o":"m 94 0 q 124 9 110 0 q 142 38 139 18 l 290 892 q 281 926 294 914 q 249 938 267 938 q 224 928 235 938 q 210 903 213 919 l 56 40 q 65 10 53 21 q 94 0 78 0 m -14 542 q -4 515 -14 526 q 29 503 6 503 l 365 503 q 398 515 389 503 q 407 542 407 526 q 398 567 407 557 q 365 578 389 578 l 29 578 q -4 567 6 578 q -14 542 -14 557 "},"u":{"ha":674,"x_min":-1,"x_max":576,"o":"m 97 -7 q 188 24 142 -7 q 280 103 235 54 q 367 211 325 153 q 446 327 410 269 q 508 429 482 385 l 500 556 q 424 433 465 499 q 340 304 383 368 q 253 188 296 240 q 175 105 211 136 q 114 74 139 74 q 88 94 93 74 q 84 142 82 114 q 90 192 86 169 l 150 529 q 143 565 154 553 q 117 578 132 578 q 85 567 101 578 q 67 532 69 556 l 7 192 q 2 99 -1 144 q 28 23 6 53 q 97 -7 50 -7 m 439 -1 q 458 3 449 -1 q 476 20 468 8 q 486 51 483 32 l 572 533 q 570 566 576 554 q 543 578 564 578 q 516 572 525 578 q 500 556 507 567 l 403 51 q 409 13 397 28 q 439 -1 421 -1 "},"v":{"ha":646,"x_min":-3,"x_max":658,"o":"m 88 -7 q 205 38 143 -7 q 329 158 267 82 q 449 331 392 235 q 551 532 506 428 l 547 563 q 539 572 546 567 q 518 578 532 578 q 483 563 496 578 q 458 519 471 547 q 373 362 422 440 q 272 219 324 283 q 178 115 221 154 q 113 76 136 76 q 85 102 89 76 q 93 193 81 128 l 156 528 q 148 565 160 553 q 121 578 136 578 q 90 567 106 578 q 71 533 75 556 l 10 193 q 1 81 -3 125 q 27 15 6 36 q 88 -7 49 -7 m 643 354 q 657 386 658 367 q 640 429 656 406 l 547 563 l 486 501 l 572 378 q 608 349 588 356 q 643 354 629 343 "},"w":{"ha":1044,"x_min":-8,"x_max":1058,"o":"m 485 -7 q 599 32 543 -7 q 707 132 656 71 q 802 260 758 193 q 878 385 846 328 q 929 475 911 443 l 944 565 q 934 574 939 571 q 918 578 929 578 q 884 563 896 578 q 858 519 872 549 q 805 421 839 478 q 730 304 771 364 q 647 193 689 244 q 568 110 606 142 q 506 78 531 78 q 481 96 486 78 q 486 168 476 114 l 554 528 q 548 565 560 553 q 519 578 536 578 l 457 446 l 406 168 q 409 41 392 89 q 485 -7 426 -7 m 86 -7 q 183 26 133 -7 q 281 113 233 60 q 372 226 329 165 q 449 344 415 288 q 501 440 482 401 l 519 578 q 485 562 497 578 q 460 518 472 546 q 374 362 424 440 q 272 219 324 283 q 176 115 221 154 q 107 76 132 76 q 85 105 88 76 q 93 193 82 133 l 156 528 q 148 565 160 553 q 121 578 136 578 q 90 567 106 578 q 71 533 75 556 l 10 193 q 10 41 -8 89 q 86 -7 29 -7 m 1043 354 q 1057 386 1058 367 q 1039 429 1056 406 l 944 565 l 883 506 l 972 378 q 1008 349 988 356 q 1043 354 1029 343 "},"x":{"ha":539,"x_min":-74,"x_max":519,"o":"m -62 14 q -35 1 -53 3 q 0 17 -18 -1 l 235 249 l 254 265 l 501 508 q 519 541 519 524 q 508 568 518 558 q 478 580 497 579 q 442 563 460 581 l 204 325 l 190 318 l -54 76 q -73 42 -72 58 q -62 14 -74 25 m 415 7 q 433 37 433 21 q 421 71 433 53 l 254 315 l 90 553 q 60 576 76 572 q 28 568 43 581 q 11 540 11 554 q 25 503 11 525 l 192 261 l 354 21 q 384 -1 367 4 q 415 7 401 -6 "},"y":{"ha":679,"x_min":-107,"x_max":578,"o":"m -107 -457 q -91 -485 -107 -475 q -44 -494 -75 -494 q -4 -494 -33 -494 q 62 -492 25 -493 q 132 -490 99 -492 q 186 -485 165 -487 q 301 -441 253 -475 q 381 -358 350 -407 q 441 -200 424 -292 q 476 -6 458 -108 l 574 533 q 565 566 578 554 q 542 578 553 578 q 517 572 525 578 q 501 556 508 567 l 393 -6 q 363 -172 376 -89 q 314 -312 349 -254 q 256 -374 292 -349 q 160 -406 219 -399 q 119 -408 147 -407 q 58 -410 90 -410 q -3 -412 25 -411 q -43 -412 -31 -412 q -91 -426 -75 -412 q -107 -457 -107 -439 m 99 -7 q 190 24 143 -7 q 282 103 236 54 q 370 211 328 153 q 448 327 413 269 q 510 431 483 385 l 501 556 q 426 435 468 500 q 341 306 385 369 q 255 189 297 242 q 176 105 213 136 q 115 74 140 74 q 89 94 94 74 q 86 142 83 114 q 93 192 89 169 l 151 529 q 145 565 156 553 q 119 578 135 578 q 87 567 103 578 q 68 532 71 556 l 8 192 q 3 99 0 144 q 29 23 7 53 q 99 -7 51 -7 "},"z":{"ha":565,"x_min":-58,"x_max":533,"o":"m -58 40 q -47 12 -58 24 q -18 0 -35 0 l 10 17 l 518 508 q 529 522 525 515 q 533 539 533 528 q 520 568 533 558 q 490 578 507 578 l 464 563 l -40 81 q -58 40 -58 63 m 440 42 q 431 69 440 57 q 397 82 422 82 l 15 82 l -18 0 l 397 0 q 431 13 422 0 q 440 42 440 26 m 35 536 q 44 508 35 522 q 78 494 53 494 l 454 494 l 490 578 l 78 578 q 44 565 53 578 q 35 536 35 551 "}," ":{"ha":386,"x_min":0,"x_max":0,"o":""}," ":{"ha":386,"x_min":0,"x_max":0,"o":""},".":{"ha":333,"x_min":36,"x_max":160,"o":"m 97 -19 q 141 -1 122 -19 q 160 44 160 18 q 141 88 160 69 q 97 106 122 106 q 53 88 71 106 q 36 44 36 69 q 53 0 36 19 q 97 -19 71 -19 "},",":{"ha":333,"x_min":29,"x_max":147,"o":"m 64 -167 q 94 -160 79 -168 q 114 -129 110 -151 l 143 35 q 136 69 147 57 q 108 82 125 81 q 79 76 93 85 q 61 46 65 67 l 33 -117 q 40 -151 29 -139 q 64 -167 50 -164 "},":":{"ha":404,"x_min":56,"x_max":244,"o":"m 117 -18 q 163 1 143 -18 q 182 46 182 19 q 163 89 182 71 q 117 107 143 107 q 73 89 90 107 q 56 46 56 71 q 73 2 56 22 q 117 -18 90 -18 m 182 388 q 225 408 206 388 q 244 453 244 428 q 225 495 244 478 q 182 513 206 513 q 138 494 156 513 q 121 453 121 476 q 138 408 121 429 q 182 388 156 388 "},";":{"ha":404,"x_min":51,"x_max":244,"o":"m 90 -168 q 118 -160 104 -169 q 135 -129 132 -150 l 165 35 q 157 69 168 57 q 131 82 146 81 q 100 76 114 85 q 82 46 86 67 l 54 -117 q 63 -153 51 -140 q 90 -168 75 -167 m 182 388 q 225 408 206 388 q 244 453 244 428 q 225 495 244 478 q 182 513 206 513 q 138 494 156 513 q 121 453 121 476 q 138 408 121 429 q 182 388 156 388 "},"…":{"ha":782,"x_min":56,"x_max":543,"o":"m 481 -50 q 524 -31 504 -50 q 543 15 543 -11 q 524 58 543 39 q 481 76 504 76 q 437 58 454 76 q 419 15 419 39 q 437 -30 419 -10 q 481 -50 454 -50 m 117 -50 q 160 -31 142 -50 q 179 15 179 -11 q 160 58 179 39 q 117 76 142 76 q 73 58 90 76 q 56 15 56 39 q 73 -30 56 -10 q 117 -50 90 -50 m 299 -50 q 342 -31 324 -50 q 361 15 361 -11 q 342 58 361 39 q 299 76 324 76 q 255 58 272 76 q 238 15 238 39 q 255 -30 238 -10 q 299 -50 272 -50 "},"!":{"ha":406,"x_min":54,"x_max":333,"o":"m 331 1038 q 323 1064 333 1056 q 297 1072 313 1072 q 265 1064 281 1072 q 246 1038 250 1056 l 121 333 q 128 301 117 313 q 156 289 140 290 q 186 299 171 288 q 204 333 201 310 l 331 1038 m 117 -10 q 166 11 146 -10 q 186 58 186 32 q 166 103 186 85 q 117 122 146 122 q 72 102 90 122 q 54 58 54 82 q 72 12 54 33 q 117 -10 90 -10 "},"¡":{"ha":406,"x_min":61,"x_max":340,"o":"m 271 700 q 263 732 274 721 q 236 744 251 743 q 206 735 222 746 q 186 700 190 724 l 64 35 q 73 8 61 17 q 100 0 85 -1 q 130 8 115 0 q 149 35 144 17 l 271 700 m 289 965 q 326 982 311 965 q 340 1018 340 999 q 326 1055 340 1038 q 289 1072 311 1072 q 250 1056 267 1072 q 233 1018 233 1039 q 250 981 233 997 q 289 965 267 965 "},"?":{"ha":804,"x_min":185,"x_max":761,"o":"m 210 754 q 245 762 225 750 q 271 800 265 774 q 304 892 279 847 q 375 967 329 938 q 490 997 421 997 q 588 977 544 997 q 654 917 632 957 q 667 817 676 878 q 640 719 660 769 q 585 627 621 669 q 490 558 549 585 q 346 532 432 532 l 340 449 q 553 495 469 449 q 683 622 636 542 q 747 804 729 703 q 733 944 761 882 q 647 1043 704 1007 q 513 1079 589 1079 q 291 1007 371 1079 q 190 817 211 935 q 190 774 185 790 q 210 754 196 757 m 281 -10 q 329 9 308 -10 q 350 53 350 28 q 329 101 350 81 q 281 122 308 122 q 236 101 254 122 q 218 53 218 81 q 236 10 218 29 q 281 -10 254 -10 m 308 289 q 340 297 325 288 q 360 333 354 307 l 389 500 l 346 532 q 320 523 332 532 q 306 500 308 514 l 275 333 q 284 303 274 315 q 308 289 294 292 "},"¿":{"ha":806,"x_min":79,"x_max":658,"o":"m 501 631 q 290 583 374 631 q 158 450 206 536 q 90 249 111 364 q 108 128 79 185 q 197 35 138 71 q 331 0 256 0 q 552 72 472 0 q 653 263 632 144 q 653 306 658 290 q 633 325 647 321 q 598 318 618 329 q 572 279 578 307 q 539 187 564 232 q 469 112 514 142 q 353 82 424 82 q 255 101 299 82 q 188 157 211 121 q 174 243 165 193 q 187 303 178 265 q 215 383 196 340 q 269 463 235 425 q 358 524 304 500 q 493 547 413 547 l 501 631 m 568 746 q 560 775 571 764 q 535 790 550 786 q 503 783 518 793 q 483 746 489 774 l 454 579 q 463 559 453 571 q 497 547 472 547 q 524 556 511 547 q 538 579 536 565 l 568 746 m 576 965 q 612 982 597 965 q 626 1021 626 999 q 612 1056 626 1040 q 576 1072 597 1072 q 537 1056 554 1072 q 519 1021 519 1040 q 536 982 519 999 q 576 965 553 965 "},"·":{"ha":419,"x_min":106,"x_max":229,"o":"m 167 228 q 210 248 192 228 q 229 292 229 268 q 210 335 229 318 q 167 353 192 353 q 123 335 140 353 q 106 292 106 317 q 123 249 106 269 q 167 228 140 228 "},"•":{"ha":544,"x_min":158,"x_max":406,"o":"m 279 458 q 341 476 313 458 q 388 524 369 494 q 406 586 406 553 q 388 647 406 619 q 342 692 371 675 q 281 710 314 710 q 218 692 246 710 q 174 647 190 675 q 158 586 158 619 q 174 524 158 554 q 217 476 190 494 q 279 458 244 458 "},"*":{"ha":581,"x_min":196,"x_max":513,"o":"m 482 947 q 508 975 503 960 q 506 1001 513 990 q 485 1012 500 1010 q 453 1003 471 1014 l 228 865 q 201 836 207 851 q 203 810 196 821 q 224 799 210 800 q 257 808 238 797 l 482 947 m 422 811 q 453 801 439 800 q 476 811 468 801 q 481 834 483 821 q 464 860 479 847 l 286 1000 q 257 1011 271 1013 q 236 1000 243 1010 q 229 977 228 992 q 246 950 231 963 l 422 811 m 407 1028 q 403 1062 411 1051 q 385 1072 396 1072 q 360 1062 372 1072 q 343 1028 347 1051 l 300 783 q 304 752 297 763 q 322 739 311 742 q 348 749 335 738 q 365 783 361 761 l 407 1028 "},"#":{"ha":1285,"x_min":104,"x_max":1158,"o":"m 333 0 q 365 10 349 -1 q 386 46 381 22 l 536 896 q 529 926 540 915 q 501 938 518 938 q 471 927 486 938 q 453 896 456 917 l 301 46 q 309 12 299 24 q 333 0 319 0 m 104 281 q 115 255 104 267 q 147 243 126 243 l 1046 243 q 1078 255 1067 243 q 1089 281 1089 267 q 1079 306 1089 294 q 1046 317 1069 317 l 147 317 q 115 306 125 317 q 104 281 104 294 m 758 0 q 790 12 775 0 q 808 46 806 24 l 958 896 q 951 926 963 915 q 925 938 940 936 q 894 927 910 938 q 875 896 878 917 l 725 46 q 732 11 721 24 q 758 0 743 -1 m 172 669 q 183 644 172 656 q 217 633 194 633 l 1114 633 q 1147 644 1136 633 q 1158 669 1158 656 q 1147 696 1158 683 q 1114 708 1136 708 l 217 708 q 183 696 194 708 q 172 669 172 683 "},"/":{"ha":635,"x_min":53,"x_max":578,"o":"m 569 1017 q 574 1047 578 1035 q 558 1065 569 1058 q 535 1072 547 1072 q 508 1064 521 1072 q 486 1035 496 1056 l 63 51 q 66 14 53 28 q 99 0 79 0 q 125 8 113 0 q 146 33 138 15 l 569 1017 "},"\\":{"ha":635,"x_min":82,"x_max":610,"o":"m 175 1035 q 154 1064 167 1056 q 126 1072 142 1072 q 95 1058 108 1072 q 93 1017 82 1043 l 517 33 q 537 8 524 15 q 564 0 550 0 q 597 15 583 0 q 599 51 610 29 l 175 1035 "},"-":{"ha":626,"x_min":111,"x_max":444,"o":"m 399 289 q 433 302 422 289 q 444 331 444 315 q 433 358 444 344 q 399 371 422 371 l 156 371 q 122 356 132 371 q 111 326 111 342 q 122 301 111 313 q 156 289 133 289 l 399 289 "},"–":{"ha":758,"x_min":113,"x_max":576,"o":"m 532 289 q 565 301 554 289 q 576 328 576 314 q 565 352 576 342 q 532 363 554 363 l 157 363 q 124 352 135 363 q 113 328 113 342 q 124 301 113 314 q 157 289 135 289 l 532 289 "},"—":{"ha":928,"x_min":111,"x_max":744,"o":"m 693 289 q 731 301 718 289 q 744 328 744 314 q 732 351 744 340 q 693 363 719 363 l 160 363 q 123 351 135 363 q 111 328 111 340 q 124 301 111 314 q 160 289 138 289 l 693 289 "},"_":{"ha":861,"x_min":38,"x_max":604,"o":"m 560 -126 q 593 -115 582 -126 q 604 -89 604 -103 q 593 -64 604 -75 q 560 -53 582 -53 l 82 -53 q 49 -64 60 -53 q 38 -90 38 -75 q 49 -115 38 -104 q 82 -126 61 -126 l 560 -126 "},"(":{"ha":607,"x_min":93,"x_max":604,"o":"m 324 -490 q 335 -467 333 -483 q 325 -431 336 -451 q 196 -11 219 -207 q 203 361 172 185 q 324 682 231 519 q 574 1001 418 844 q 601 1041 597 1025 q 596 1065 604 1057 q 565 1072 586 1076 q 519 1044 544 1067 q 368 875 438 965 q 245 692 299 785 q 157 515 192 600 q 111 361 122 429 q 102 122 93 258 q 151 -165 111 -14 q 265 -467 192 -317 q 293 -492 276 -486 q 324 -490 310 -497 "},")":{"ha":607,"x_min":-75,"x_max":436,"o":"m -68 -453 q -39 -465 -57 -464 q -6 -450 -21 -465 q 205 -206 115 -335 q 350 48 294 -76 q 424 275 406 172 q 433 435 436 343 q 410 631 429 526 q 357 845 392 736 q 272 1056 322 954 q 240 1098 257 1086 q 208 1103 222 1110 q 195 1080 197 1097 q 207 1035 193 1063 q 332 649 300 833 q 336 307 364 465 q 217 -46 306 131 q -50 -396 128 -222 q -70 -428 -65 -412 q -68 -453 -75 -443 "},"{":{"ha":578,"x_min":36,"x_max":603,"o":"m 71 339 q 81 301 69 317 q 106 267 92 286 q 150 117 160 185 q 126 33 144 82 q 85 -68 107 -15 q 50 -172 64 -121 q 38 -264 36 -224 q 66 -353 42 -311 q 123 -428 90 -394 q 183 -485 156 -462 q 222 -502 203 -500 q 256 -492 242 -504 q 265 -459 269 -481 q 244 -426 261 -437 q 187 -382 214 -403 q 142 -333 160 -361 q 122 -261 125 -306 q 135 -173 121 -222 q 172 -73 150 -124 q 212 24 193 -22 q 236 104 231 71 q 236 209 244 158 q 182 325 228 260 q 278 416 251 374 q 318 513 304 458 q 324 594 326 546 q 320 695 322 642 q 324 798 318 749 q 350 881 329 847 q 436 947 378 925 q 550 983 494 969 q 587 1006 571 990 q 600 1039 603 1022 q 572 1067 599 1058 q 518 1065 546 1075 q 438 1034 486 1056 q 345 981 390 1013 q 275 907 300 949 q 248 819 254 871 q 242 710 242 767 q 242 603 242 653 q 233 524 242 554 q 197 457 224 488 q 129 396 171 426 q 90 370 107 382 q 71 339 74 358 "},"}":{"ha":568,"x_min":-131,"x_max":436,"o":"m 407 282 q 399 318 410 303 q 372 353 388 333 q 335 431 346 393 q 328 503 324 468 q 352 579 335 539 q 390 663 369 619 q 423 749 410 706 q 433 833 436 793 q 406 923 431 881 q 349 999 382 965 q 289 1054 317 1032 q 251 1072 271 1069 q 217 1061 231 1074 q 206 1028 203 1050 q 228 994 210 1007 q 285 951 258 972 q 330 903 313 931 q 350 831 347 875 q 338 750 351 792 q 303 667 324 708 q 265 588 282 626 q 243 517 247 550 q 242 412 233 463 q 297 296 251 361 q 200 204 226 247 q 160 107 174 161 q 153 18 153 74 q 155 -101 154 -37 q 149 -222 156 -165 q 122 -312 143 -278 q 38 -378 96 -356 q -78 -414 -21 -400 q -115 -436 -99 -419 q -129 -471 -131 -453 q -101 -497 -126 -489 q -46 -497 -75 -506 q 35 -465 -12 -486 q 127 -411 82 -443 q 196 -339 172 -379 q 225 -242 217 -303 q 235 -115 233 -182 q 237 9 236 -49 q 246 97 238 67 q 282 164 257 133 q 350 225 307 194 q 389 251 372 240 q 407 282 406 263 "},"[":{"ha":553,"x_min":-31,"x_max":558,"o":"m 317 1019 q 317 1058 321 1043 q 288 1072 314 1072 q 249 1060 261 1072 q 235 1028 238 1047 l -26 -450 q -20 -481 -31 -468 q 15 -494 -10 -494 q 49 -478 43 -494 q 58 -450 56 -462 l 317 1019 m 10 -494 l 249 -494 q 281 -483 271 -494 q 292 -457 292 -471 q 282 -432 292 -443 q 249 -421 272 -421 l 19 -421 l 10 -494 m 275 999 l 511 999 q 543 1010 532 999 q 556 1035 554 1021 q 547 1060 558 1049 q 511 1072 535 1072 l 283 1072 l 275 999 "},"]":{"ha":553,"x_min":-93,"x_max":492,"o":"m 489 1028 q 482 1060 492 1047 q 447 1072 472 1072 q 414 1057 421 1072 q 404 1029 407 1042 l 146 -442 q 145 -479 142 -464 q 175 -494 149 -494 q 213 -482 203 -494 q 228 -450 224 -469 l 489 1028 m 179 -494 l 192 -421 l -47 -421 q -81 -432 -69 -421 q -93 -457 -93 -443 q -82 -483 -93 -471 q -47 -494 -71 -494 l 179 -494 m 440 999 l 454 1072 l 214 1072 q 181 1060 192 1072 q 169 1035 169 1049 q 181 1010 169 1021 q 214 999 192 999 l 440 999 "},"“":{"ha":561,"x_min":203,"x_max":500,"o":"m 243 825 q 273 835 258 825 q 290 865 288 846 l 318 1024 q 311 1060 324 1047 q 282 1072 299 1072 q 253 1062 268 1072 q 235 1029 238 1051 l 207 871 q 215 837 203 849 q 243 825 226 825 m 422 825 q 452 833 438 825 q 468 860 467 842 l 497 1024 q 488 1060 500 1047 q 458 1072 476 1072 q 431 1063 444 1072 q 414 1036 418 1054 l 385 871 q 387 845 382 856 q 401 830 392 835 q 422 825 411 825 "},"”":{"ha":561,"x_min":203,"x_max":500,"o":"m 243 825 q 273 835 258 825 q 290 865 288 846 l 318 1024 q 311 1060 324 1047 q 282 1072 299 1072 q 253 1062 268 1072 q 235 1029 238 1051 l 207 871 q 215 837 203 849 q 243 825 226 825 m 422 825 q 452 833 438 825 q 468 860 467 842 l 497 1024 q 488 1060 500 1047 q 458 1072 476 1072 q 431 1063 444 1072 q 414 1036 418 1054 l 385 871 q 387 845 382 856 q 401 830 392 835 q 422 825 411 825 "},"‘":{"ha":383,"x_min":204,"x_max":322,"o":"m 244 825 q 274 833 260 825 q 290 860 289 842 l 318 1024 q 310 1060 322 1047 q 281 1072 299 1072 q 253 1063 267 1072 q 236 1036 239 1054 l 207 871 q 209 845 204 856 q 224 830 214 835 q 244 825 233 825 "},"’":{"ha":383,"x_min":204,"x_max":322,"o":"m 244 825 q 274 833 260 825 q 290 860 289 842 l 318 1024 q 310 1060 322 1047 q 281 1072 299 1072 q 253 1063 267 1072 q 236 1036 239 1054 l 207 871 q 209 845 204 856 q 224 830 214 835 q 244 825 233 825 "},"\"":{"ha":561,"x_min":203,"x_max":500,"o":"m 243 825 q 273 835 258 825 q 290 865 288 846 l 318 1024 q 311 1060 324 1047 q 282 1072 299 1072 q 253 1062 268 1072 q 235 1029 238 1051 l 207 871 q 215 837 203 849 q 243 825 226 825 m 422 825 q 452 833 438 825 q 468 860 467 842 l 497 1024 q 488 1060 500 1047 q 458 1072 476 1072 q 431 1063 444 1072 q 414 1036 418 1054 l 385 871 q 387 845 382 856 q 401 830 392 835 q 422 825 411 825 "},"'":{"ha":383,"x_min":204,"x_max":322,"o":"m 244 825 q 274 833 260 825 q 290 860 289 842 l 318 1024 q 310 1060 322 1047 q 281 1072 299 1072 q 253 1063 267 1072 q 236 1036 239 1054 l 207 871 q 209 845 204 856 q 224 830 214 835 q 244 825 233 825 "},"@":{"ha":1236,"x_min":63,"x_max":1093,"o":"m 369 0 q 460 28 418 0 q 542 98 503 56 q 615 183 581 140 q 722 339 675 258 q 801 494 768 419 l 744 494 q 668 376 710 438 q 576 251 626 315 q 488 150 526 189 q 424 94 450 111 q 383 76 399 76 q 363 92 365 76 q 360 126 360 107 q 369 212 360 158 q 394 318 378 265 q 432 403 411 371 q 524 476 469 458 q 622 493 579 493 l 778 493 l 778 576 l 622 576 q 483 550 551 576 q 368 454 415 524 q 322 354 342 415 q 290 230 301 293 q 278 119 278 167 q 303 28 278 56 q 369 0 329 0 m 372 -194 q 493 -180 440 -194 q 586 -139 546 -165 q 645 -81 633 -108 q 643 -36 657 -54 q 617 -26 633 -22 q 574 -47 600 -31 q 466 -99 519 -86 q 367 -112 413 -112 q 182 -28 229 -112 q 158 203 135 56 q 178 302 165 246 q 215 418 192 358 q 272 531 238 478 q 354 619 306 583 q 451 666 393 647 q 578 694 510 685 q 717 703 647 703 q 943 639 868 703 q 1001 422 1018 575 q 968 297 994 358 q 906 187 942 236 q 837 108 871 138 q 782 79 803 79 q 771 88 774 79 q 769 108 768 96 q 769 129 769 119 q 774 178 769 147 q 779 218 778 208 l 835 539 q 833 567 839 558 q 807 576 826 576 l 757 576 l 699 240 q 690 180 693 211 q 686 124 686 149 q 708 32 686 64 q 774 0 729 0 q 870 38 819 0 q 966 135 921 75 q 1042 263 1011 194 q 1079 393 1074 332 q 1056 616 1093 529 q 933 744 1018 703 q 719 785 849 785 q 569 775 646 785 q 426 744 493 765 q 313 690 360 724 q 191 558 240 639 q 113 383 142 476 q 74 204 85 290 q 74 42 63 115 q 121 -85 85 -32 q 219 -166 157 -137 q 372 -194 282 -194 "},"&":{"ha":913,"x_min":69,"x_max":760,"o":"m 313 -7 q 478 25 407 -7 q 611 126 549 57 q 743 307 674 196 q 758 345 757 325 q 743 378 760 365 q 706 383 725 390 q 672 357 688 376 q 565 205 615 268 q 460 109 515 142 q 335 76 406 76 q 208 126 257 76 q 160 257 160 176 q 191 372 160 317 q 272 475 222 428 q 376 554 322 522 l 453 599 q 603 706 544 653 q 692 811 663 758 q 721 918 721 864 q 694 999 721 965 q 625 1051 668 1032 q 532 1069 582 1069 q 386 1040 450 1071 q 284 961 322 1010 q 238 858 246 913 q 252 758 232 811 q 300 659 272 706 q 344 582 328 613 l 651 36 q 672 11 660 22 q 697 -3 683 0 q 722 1 711 -7 q 738 37 740 14 q 726 78 736 60 l 415 632 q 378 700 401 658 q 337 785 354 742 q 322 858 319 829 q 383 949 329 911 q 518 986 438 986 q 606 961 579 986 q 633 901 633 936 q 565 781 633 844 q 375 639 497 717 l 340 619 q 208 519 271 576 q 108 394 146 461 q 69 254 69 328 q 97 131 69 190 q 180 32 125 71 q 313 -7 235 -7 "},"©":{"ha":1508,"x_min":68,"x_max":1354,"o":"m 711 -132 q 960 -82 844 -132 q 1165 57 1076 -32 q 1304 262 1254 146 q 1354 511 1354 378 q 1304 761 1354 644 q 1165 967 1254 878 q 960 1106 1076 1056 q 711 1156 844 1156 q 462 1106 578 1156 q 257 967 346 1056 q 118 761 168 878 q 68 511 68 644 q 118 262 68 378 q 257 57 168 146 q 462 -82 346 -32 q 711 -132 578 -132 m 711 -50 q 494 -6 596 -50 q 315 115 392 38 q 194 294 238 193 q 150 513 150 396 q 194 729 150 628 q 315 908 238 831 q 494 1028 393 985 q 711 1072 596 1072 q 928 1028 826 1072 q 1107 908 1029 985 q 1228 729 1185 831 q 1272 513 1272 628 q 1228 294 1272 396 q 1108 115 1185 193 q 928 -6 1031 38 q 711 -50 826 -50 m 594 199 q 710 239 656 199 q 825 368 765 279 q 846 406 843 396 q 849 421 849 415 q 839 447 849 436 q 814 458 829 458 q 785 450 796 458 q 758 419 775 442 q 669 312 706 343 q 592 281 632 281 q 553 302 561 281 q 546 350 546 324 q 550 411 546 375 q 560 483 554 447 q 569 543 565 519 q 590 626 578 586 q 627 699 601 667 q 700 751 653 732 q 825 769 747 769 q 876 769 864 769 q 899 774 889 768 q 914 792 910 779 q 916 820 918 806 q 903 842 914 835 q 880 849 894 847 q 825 851 865 851 q 661 825 724 851 q 563 754 599 799 q 511 655 528 710 q 485 543 494 600 q 478 499 483 533 q 469 424 474 465 q 464 351 464 383 q 474 281 464 317 q 512 222 483 246 q 594 199 540 199 "},"®":{"ha":950,"x_min":164,"x_max":922,"o":"m 432 674 q 461 682 451 674 q 472 700 471 690 l 528 1018 q 514 1038 531 1032 q 485 1044 497 1044 q 469 1040 475 1044 q 460 1024 463 1035 l 403 703 q 409 682 401 690 q 432 674 417 674 m 608 674 q 624 679 617 674 q 638 690 632 685 q 640 719 646 701 l 535 872 l 447 878 l 579 686 q 593 676 583 679 q 608 674 603 674 m 468 850 q 538 851 503 850 q 601 858 572 851 q 651 885 631 865 q 678 940 672 904 q 663 1001 685 979 q 597 1034 642 1024 q 485 1044 551 1044 l 479 976 q 577 969 539 976 q 613 942 615 961 q 591 924 610 929 q 542 917 572 918 q 475 915 513 915 l 468 850 m 543 476 q 691 506 622 476 q 812 588 760 536 q 893 709 864 640 q 922 857 922 778 q 893 1003 922 935 q 812 1124 864 1072 q 691 1206 760 1176 q 543 1236 622 1236 q 395 1206 464 1236 q 274 1124 326 1176 q 193 1003 222 1072 q 164 857 164 935 q 193 709 164 778 q 274 588 222 640 q 395 506 326 536 q 543 476 464 476 m 543 556 q 392 597 460 556 q 283 706 324 638 q 243 857 243 774 q 283 1007 243 939 q 392 1115 324 1075 q 543 1156 460 1156 q 694 1115 626 1156 q 801 1007 761 1075 q 842 857 842 939 q 801 706 842 774 q 694 597 761 638 q 543 556 626 556 "},"™":{"ha":1275,"x_min":164,"x_max":1232,"o":"m 396 1099 l 313 1099 l 229 625 q 238 593 228 608 q 269 578 247 578 q 301 591 292 578 q 313 617 310 604 l 396 1099 m 511 1072 q 542 1085 531 1072 q 553 1115 553 1097 q 542 1147 553 1135 q 511 1160 531 1160 l 207 1160 q 174 1147 185 1160 q 164 1115 164 1135 q 174 1085 164 1097 q 207 1072 185 1072 l 511 1072 m 806 1047 l 800 1161 q 772 1152 782 1161 q 753 1124 763 1143 l 500 642 q 494 613 493 628 q 506 588 496 597 q 533 578 517 578 q 556 585 543 578 q 578 613 568 593 l 806 1047 m 894 660 l 840 1125 q 830 1150 839 1139 q 800 1161 821 1161 l 763 1047 l 815 617 q 826 590 818 601 q 854 578 833 578 l 894 660 m 853 578 q 883 586 872 578 q 899 606 893 594 l 1153 1047 l 1149 1161 q 1122 1153 1132 1161 q 1104 1132 1111 1144 l 842 674 l 853 578 m 1190 1114 q 1177 1148 1189 1135 q 1149 1161 1165 1161 l 1113 1047 l 1149 619 q 1160 590 1150 603 q 1192 578 1171 578 q 1222 592 1211 578 q 1231 624 1232 606 l 1190 1114 "},"°":{"ha":511,"x_min":196,"x_max":483,"o":"m 269 714 q 347 740 310 714 q 416 808 385 767 q 465 897 447 850 q 483 982 483 943 q 456 1056 483 1031 q 371 1081 428 1081 q 293 1055 325 1081 q 243 997 261 1029 q 213 924 229 971 q 196 818 196 876 q 205 756 196 779 q 231 724 214 733 q 269 714 247 714 m 281 779 q 264 794 267 779 q 261 831 261 808 q 274 899 261 864 q 304 971 286 935 q 333 1005 319 994 q 368 1015 347 1015 q 407 1006 396 1015 q 418 971 418 996 q 404 915 418 947 q 369 851 390 882 q 324 799 347 819 q 281 779 300 779 "},"|":{"ha":381,"x_min":-31,"x_max":338,"o":"m 332 1103 q 326 1143 338 1131 q 299 1156 314 1156 q 269 1144 285 1156 q 249 1108 253 1132 l -26 -450 q -19 -481 -31 -468 q 14 -494 -8 -494 q 49 -481 42 -494 q 58 -454 56 -467 l 332 1103 "},"¦":{"ha":381,"x_min":-31,"x_max":338,"o":"m 176 222 q 169 256 181 244 q 143 267 158 267 q 112 256 128 267 q 93 222 96 244 l -26 -450 q -19 -481 -31 -468 q 14 -494 -8 -494 q 49 -481 42 -494 q 58 -454 56 -467 l 176 222 m 332 1103 q 326 1143 338 1131 q 299 1156 314 1156 q 269 1144 285 1156 q 249 1108 253 1132 l 131 439 q 138 406 126 418 q 165 394 149 393 q 196 406 181 394 q 214 439 211 418 l 332 1103 "},"¢":{"ha":472,"x_min":-14,"x_max":464,"o":"m 124 -260 q 157 -245 151 -260 q 165 -218 163 -231 l 342 740 q 334 781 347 768 q 306 793 321 793 q 277 782 292 793 q 260 747 263 771 l 81 -214 q 90 -246 78 -232 q 124 -260 101 -260 m 111 -7 q 229 28 171 -7 q 335 117 288 64 q 406 222 382 169 q 406 252 413 238 q 385 272 399 267 q 352 272 367 281 q 331 249 338 263 q 299 200 321 229 q 249 143 278 171 q 188 97 219 115 q 124 78 156 78 q 82 96 94 78 q 69 156 69 114 q 75 201 69 169 q 90 270 81 232 q 113 344 100 308 q 143 404 126 381 q 251 492 188 468 q 428 489 315 517 q 453 500 443 485 q 464 526 464 515 q 456 555 464 544 q 428 571 449 565 q 215 563 304 597 q 78 456 126 528 q 31 357 51 417 q -2 238 10 297 q -14 142 -14 179 q 19 28 -14 63 q 111 -7 51 -7 "},"$":{"ha":754,"x_min":-33,"x_max":747,"o":"m 182 0 q 290 5 231 0 q 410 24 350 10 q 519 67 469 39 q 600 140 569 94 q 631 253 631 185 q 599 363 631 321 q 510 440 567 406 q 383 515 454 474 q 279 576 329 547 q 198 635 229 604 q 167 701 167 665 q 196 766 167 738 q 272 815 225 794 q 373 846 319 835 q 474 857 426 857 l 710 857 q 738 870 729 857 q 747 899 747 883 q 737 926 747 914 q 703 939 726 939 l 475 939 q 278 906 367 939 q 137 818 189 874 q 85 693 85 763 q 106 616 85 650 q 164 553 128 582 q 246 499 200 525 q 340 444 292 472 q 449 381 403 408 q 522 325 496 354 q 547 251 547 296 q 520 173 547 204 q 450 124 493 142 q 357 97 407 106 q 260 85 307 88 q 182 82 214 82 l 11 82 q -21 69 -8 82 q -33 40 -33 56 q -22 13 -33 25 q 11 0 -11 0 l 182 0 m 503 1019 q 499 1059 508 1046 q 474 1072 489 1072 q 446 1061 460 1072 q 429 1026 432 1050 l 233 -86 q 239 -120 229 -108 q 263 -132 249 -132 q 290 -121 276 -132 q 307 -89 303 -110 l 503 1019 "},"€":{"ha":814,"x_min":0,"x_max":850,"o":"m 479 600 q 513 614 501 600 q 524 642 524 628 q 513 669 524 656 q 479 683 501 683 l 104 683 q 71 669 82 683 q 60 642 60 656 q 71 614 60 628 q 104 600 82 600 l 479 600 m 419 401 q 453 415 442 401 q 464 442 464 428 q 453 469 464 456 q 419 483 442 483 l 44 483 q 11 469 22 483 q 0 442 0 456 q 11 415 0 428 q 44 401 22 401 l 419 401 m 299 -7 q 494 60 397 -7 q 692 279 590 128 q 723 331 718 318 q 728 350 728 343 q 717 374 728 365 q 692 383 707 383 q 658 371 672 383 q 624 326 644 358 q 450 133 526 189 q 297 76 374 76 q 218 101 246 76 q 180 160 190 125 q 169 226 169 196 q 178 355 169 286 q 198 484 188 424 q 214 576 208 544 q 242 694 225 635 q 290 806 260 753 q 373 901 321 860 q 505 967 425 943 q 703 990 585 990 q 780 991 756 990 q 815 994 804 992 q 833 1001 825 997 q 849 1029 847 1008 q 836 1060 850 1050 q 818 1067 829 1065 q 781 1071 807 1069 q 704 1072 756 1072 q 476 1044 569 1072 q 320 967 382 1017 q 221 853 258 918 q 162 713 183 788 q 126 558 140 638 q 119 508 125 546 q 105 421 113 471 q 92 319 97 371 q 88 228 88 268 q 107 118 88 172 q 172 28 126 64 q 299 -7 218 -7 "},"£":{"ha":696,"x_min":-35,"x_max":658,"o":"m 71 542 q 79 515 69 526 q 114 503 89 503 l 465 503 q 499 515 490 503 q 508 542 507 526 q 500 567 510 557 q 465 578 490 578 l 114 578 q 81 567 89 578 q 71 542 72 557 m 3 0 l 51 0 q 135 101 89 44 q 226 221 182 157 q 301 351 271 285 q 327 433 318 388 q 338 524 336 478 q 331 612 339 571 q 306 679 324 653 q 240 796 269 735 q 213 904 210 857 q 254 971 215 949 q 342 989 289 989 q 463 967 400 989 q 564 910 525 946 q 613 885 593 885 q 643 896 633 885 q 656 925 654 908 q 633 965 658 942 q 507 1041 585 1010 q 351 1072 429 1072 q 286 1065 318 1072 q 226 1043 254 1058 q 151 979 176 1017 q 122 896 125 942 q 130 821 119 861 q 165 735 140 781 q 228 638 190 689 q 245 576 240 621 q 245 479 250 532 q 221 385 240 426 q 158 274 197 329 q 81 173 119 219 q 13 97 42 126 q -18 63 -15 67 q -33 31 -31 46 q -26 8 -35 17 q 3 0 -18 0 m 10 0 l 457 0 q 491 13 482 0 q 500 42 500 26 q 490 69 499 57 q 457 82 482 82 l 44 82 l 10 0 "},"¥":{"ha":806,"x_min":110,"x_max":776,"o":"m 558 492 q 590 503 581 492 q 599 529 600 515 q 586 554 597 543 q 553 565 575 565 l 178 565 q 144 554 156 565 q 135 529 133 543 q 149 503 138 515 q 183 492 161 492 l 558 492 m 532 308 q 564 320 554 308 q 574 346 574 332 q 560 372 572 361 q 526 383 549 383 l 151 383 q 119 372 129 383 q 111 346 110 361 q 123 320 111 332 q 157 308 135 308 l 532 308 m 758 1065 q 726 1072 744 1076 q 696 1051 707 1067 l 421 676 l 335 550 l 378 481 l 764 1004 q 775 1039 776 1022 q 758 1065 774 1056 m 283 0 q 319 15 311 0 q 331 42 328 29 l 424 578 l 340 578 l 246 44 q 251 13 242 26 q 283 0 261 0 m 165 1069 q 144 1047 149 1064 q 147 1011 140 1031 l 339 507 l 392 576 l 361 678 l 225 1039 q 199 1069 217 1061 q 165 1069 181 1076 "},"+":{"ha":757,"x_min":111,"x_max":574,"o":"m 411 501 q 403 538 414 525 q 376 551 392 551 q 353 542 364 551 q 339 513 342 532 l 274 143 q 283 108 271 121 q 308 94 294 94 q 332 103 321 94 q 346 132 343 113 l 411 501 m 529 289 q 563 301 553 289 q 574 326 574 313 q 563 351 574 340 q 529 363 553 363 l 156 363 q 122 351 133 363 q 111 326 111 340 q 122 301 111 313 q 156 289 133 289 l 529 289 "},"−":{"ha":757,"x_min":111,"x_max":574,"o":"m 529 289 q 563 301 553 289 q 574 326 574 313 q 563 351 574 340 q 529 363 553 363 l 156 363 q 122 351 133 363 q 111 326 111 340 q 122 301 111 313 q 156 289 133 289 l 529 289 "},"×":{"ha":758,"x_min":78,"x_max":608,"o":"m 590 479 q 608 510 608 494 q 596 536 607 526 q 567 549 585 547 q 532 536 549 551 l 93 167 q 78 138 78 154 q 89 111 79 122 q 118 97 100 100 q 156 111 136 94 l 590 479 m 221 529 q 188 549 206 549 q 160 539 171 550 q 147 513 150 529 q 156 481 143 496 l 467 114 q 497 99 481 99 q 525 108 514 99 q 540 136 538 119 q 529 168 543 153 l 221 529 "},"÷":{"ha":757,"x_min":111,"x_max":574,"o":"m 529 289 q 563 300 551 289 q 574 326 574 311 q 563 351 574 340 q 529 363 553 363 l 156 363 q 122 351 133 363 q 111 326 111 340 q 122 300 111 311 q 156 289 133 289 l 529 289 m 308 94 q 349 111 332 94 q 365 149 365 128 q 347 186 365 171 q 308 201 329 201 q 272 185 286 201 q 257 149 257 168 q 272 111 257 128 q 308 94 286 94 m 372 450 q 411 467 394 450 q 428 506 428 483 q 411 542 428 526 q 372 558 394 558 q 335 542 350 558 q 319 506 319 525 q 335 468 319 486 q 372 450 350 450 "},"=":{"ha":758,"x_min":89,"x_max":596,"o":"m 551 410 q 585 423 574 410 q 596 450 596 436 q 585 478 596 464 q 551 492 574 492 l 176 492 q 143 478 154 492 q 132 450 132 464 q 143 423 132 436 q 176 410 154 410 l 551 410 m 508 160 q 542 174 531 160 q 553 201 553 188 q 542 229 553 215 q 508 243 531 243 l 133 243 q 100 229 111 243 q 89 201 89 215 q 100 174 89 188 q 133 160 111 160 l 508 160 "},"≠":{"ha":758,"x_min":89,"x_max":596,"o":"m 474 515 q 481 550 483 536 q 471 571 479 564 q 450 578 463 578 q 426 572 438 578 q 407 550 415 565 l 208 119 q 206 83 199 97 q 226 63 213 68 q 253 64 239 60 q 274 85 267 68 l 474 515 m 508 160 q 542 172 531 160 q 553 199 553 183 q 542 224 553 213 q 508 235 531 235 l 133 235 q 100 224 111 235 q 89 199 89 213 q 100 172 89 185 q 133 160 111 160 l 508 160 m 551 410 q 585 422 574 410 q 596 447 596 433 q 585 472 596 461 q 551 483 574 483 l 176 483 q 143 472 154 483 q 132 447 132 461 q 143 422 132 433 q 176 410 154 410 l 551 410 "},">":{"ha":710,"x_min":74,"x_max":529,"o":"m 508 296 l 465 357 l 111 169 q 80 143 86 157 q 79 115 74 129 q 99 94 85 103 q 135 99 113 86 l 508 296 m 464 299 q 497 290 483 286 q 518 307 510 294 q 528 333 529 321 q 507 358 526 346 l 214 544 q 179 556 194 557 q 153 543 164 556 q 147 513 143 529 q 169 485 151 497 l 464 299 "},"<":{"ha":710,"x_min":110,"x_max":563,"o":"m 172 292 l 526 479 q 557 505 551 490 q 558 533 563 519 q 539 553 553 546 q 501 550 525 561 l 129 353 l 172 292 m 422 104 q 458 92 442 92 q 483 106 474 93 q 490 135 494 119 q 467 164 486 151 l 174 350 q 142 358 156 363 q 119 342 128 354 q 111 315 110 328 q 131 290 113 303 l 422 104 "},"≥":{"ha":725,"x_min":93,"x_max":547,"o":"m 482 342 q 515 334 501 331 q 536 350 528 338 q 546 376 547 364 q 525 401 544 389 l 222 594 q 188 606 203 607 q 161 592 172 604 q 156 563 151 578 q 178 535 160 547 l 482 342 m 474 160 q 507 172 496 160 q 518 199 518 183 q 507 224 518 213 q 474 235 496 235 l 138 235 q 104 224 115 235 q 93 199 93 213 q 104 172 93 185 q 138 160 115 160 l 474 160 m 513 333 l 511 410 l 172 410 q 133 400 144 410 q 119 375 122 390 q 126 347 118 361 q 161 333 135 333 l 513 333 "},"≤":{"ha":722,"x_min":90,"x_max":585,"o":"m 558 535 q 581 561 578 544 q 574 592 585 578 q 549 605 564 604 q 513 594 535 606 l 140 401 q 121 378 122 392 q 129 350 119 364 q 151 335 138 338 q 183 342 165 332 l 558 535 m 472 160 q 506 172 494 160 q 517 199 517 185 q 506 224 517 213 q 472 235 494 235 l 135 235 q 101 224 113 235 q 90 199 90 213 q 101 172 90 183 q 135 160 113 160 l 472 160 m 151 333 l 503 333 q 534 345 522 333 q 546 371 546 357 q 535 397 547 385 q 493 410 522 410 l 153 410 l 151 333 "},"±":{"ha":710,"x_min":89,"x_max":546,"o":"m 401 569 q 393 606 404 593 q 367 619 382 619 q 343 610 354 619 q 328 581 332 600 l 282 324 q 291 287 279 300 q 317 274 303 274 q 340 283 329 274 q 354 313 351 293 l 401 569 m 458 160 q 492 172 482 160 q 503 199 503 183 q 492 224 503 213 q 458 235 482 235 l 133 235 q 100 224 111 235 q 89 199 89 213 q 100 172 89 185 q 133 160 111 160 l 458 160 m 501 410 q 535 422 525 410 q 546 447 546 433 q 535 472 546 461 q 501 483 525 483 l 176 483 q 143 472 154 483 q 132 447 132 461 q 143 422 132 433 q 176 410 154 410 l 501 410 "},"≈":{"ha":758,"x_min":89,"x_max":596,"o":"m 432 375 q 499 385 472 375 q 553 406 526 396 q 585 425 575 417 q 596 447 596 433 q 590 468 596 457 q 573 485 583 479 q 547 485 563 492 q 503 462 525 475 q 446 449 482 449 q 392 464 422 449 q 333 495 363 479 q 278 511 303 511 q 223 503 246 511 q 176 485 200 494 q 143 469 154 476 q 132 447 132 461 q 138 425 132 438 q 153 406 143 413 q 178 406 164 400 q 217 426 197 415 q 264 438 236 438 q 320 422 290 438 q 380 390 350 406 q 432 375 410 375 m 389 125 q 456 135 429 125 q 510 157 483 146 q 542 176 532 167 q 553 199 553 185 q 547 219 553 208 q 530 237 540 231 q 506 236 519 243 q 461 213 482 225 q 403 200 440 200 q 351 215 381 200 q 291 247 321 231 q 235 263 261 263 q 180 253 203 263 q 133 236 157 244 q 100 220 111 228 q 89 199 89 213 q 94 176 89 189 q 110 157 100 164 q 135 157 121 150 q 174 176 154 165 q 221 188 193 188 q 277 172 247 188 q 337 140 307 156 q 389 125 367 125 "},"~":{"ha":758,"x_min":113,"x_max":576,"o":"m 413 261 q 480 272 453 261 q 533 292 507 282 q 566 311 556 303 q 576 333 576 319 q 570 354 576 343 q 553 372 564 365 q 528 371 542 378 q 484 348 506 361 q 426 335 463 335 q 373 350 403 335 q 313 381 343 365 q 257 397 283 397 q 202 389 225 397 q 157 371 179 381 q 124 355 135 363 q 113 333 113 347 q 118 311 113 324 q 134 292 124 299 q 158 292 144 286 q 197 313 178 301 q 244 324 217 324 q 301 308 271 324 q 360 276 331 292 q 413 261 390 261 "},"^":{"ha":678,"x_min":104,"x_max":568,"o":"m 175 485 l 401 675 l 332 682 l 493 489 q 524 473 507 472 q 551 483 540 474 q 566 512 564 494 q 556 543 568 529 l 403 725 q 374 738 393 736 q 339 725 356 740 l 119 542 q 104 513 104 529 q 114 486 104 497 q 140 473 125 476 q 175 485 156 469 "},"∞":{"ha":1229,"x_min":97,"x_max":1067,"o":"m 513 351 l 532 324 q 595 241 560 282 q 673 170 631 200 q 763 132 715 140 q 849 134 803 125 q 938 169 894 143 q 1013 240 981 196 q 1056 349 1044 285 q 1053 451 1067 408 q 1010 524 1039 494 q 944 569 981 553 q 871 592 907 586 q 773 592 828 600 q 655 554 718 585 q 525 460 592 524 l 513 351 m 529 463 q 444 376 493 421 q 347 292 396 331 q 261 231 299 254 q 208 210 224 207 q 187 241 193 213 q 181 308 181 269 q 186 375 182 346 q 209 444 193 408 q 255 501 225 479 q 331 515 285 524 q 391 490 364 510 q 439 444 418 469 q 474 397 460 419 l 528 460 q 487 513 510 485 q 431 565 464 542 q 353 596 399 589 q 257 589 300 606 q 183 538 214 572 q 131 460 151 504 q 103 372 111 417 q 98 298 97 338 q 109 223 99 258 q 140 163 119 188 q 194 133 161 139 q 297 155 242 125 q 410 237 351 185 q 526 346 469 289 l 529 463 m 581 397 q 731 501 664 479 q 846 515 799 524 q 918 485 886 508 q 967 427 950 461 q 975 353 983 393 q 933 274 967 307 q 856 224 899 240 q 778 214 814 208 q 711 246 744 221 q 649 306 678 271 q 597 375 621 342 l 581 397 "},"%":{"ha":825,"x_min":69,"x_max":761,"o":"m 668 868 q 673 897 678 885 q 657 917 668 910 q 633 924 646 924 q 608 915 619 924 q 586 886 597 906 l 113 51 q 108 24 104 36 q 124 6 113 13 q 149 0 136 0 q 174 8 163 0 q 194 33 185 15 l 668 868 m 519 -7 q 607 23 564 -7 q 685 99 650 53 q 740 198 719 146 q 761 293 761 250 q 729 376 761 347 q 635 404 697 404 q 547 375 583 404 q 490 310 511 346 q 458 228 476 281 q 439 111 439 175 q 449 42 439 68 q 477 4 458 15 q 519 -7 496 -7 m 533 67 q 514 83 517 67 q 511 124 511 99 q 526 201 511 161 q 560 281 540 240 q 592 319 575 308 q 632 331 608 331 q 674 319 663 331 q 686 281 686 308 q 671 218 686 254 q 631 147 656 182 q 581 90 607 113 q 533 67 554 67 m 150 519 q 238 549 194 519 q 315 626 281 579 q 371 724 350 672 q 392 819 392 776 q 360 902 392 874 q 265 931 328 931 q 178 901 214 931 q 121 836 142 872 q 88 754 106 807 q 69 638 69 701 q 79 568 69 594 q 107 531 89 542 q 150 519 125 519 m 164 592 q 144 608 147 592 q 142 650 142 625 q 156 727 142 688 q 190 807 171 767 q 222 846 206 835 q 261 857 238 857 q 304 846 292 857 q 317 807 317 835 q 301 744 317 781 q 262 672 286 707 q 211 615 238 638 q 164 592 185 592 "},"`":{"ha":490,"x_min":249,"x_max":424,"o":"m 399 922 q 407 968 424 935 l 339 1126 q 317 1150 331 1143 q 289 1157 303 1157 q 265 1149 276 1157 q 251 1128 254 1142 q 260 1096 249 1114 l 349 944 q 374 922 360 926 q 399 922 389 917 "},"˜":{"ha":758,"x_min":113,"x_max":576,"o":"m 413 744 q 480 755 453 744 q 533 775 507 765 q 566 794 556 786 q 576 817 576 803 q 570 838 576 826 q 553 855 564 849 q 528 854 542 861 q 484 831 506 844 q 426 818 463 818 q 373 833 403 818 q 313 865 343 849 q 257 881 283 881 q 202 872 225 881 q 157 854 179 864 q 124 838 135 846 q 113 817 113 831 q 118 794 113 807 q 134 776 124 782 q 158 775 144 769 q 197 796 178 785 q 244 807 217 807 q 301 791 271 807 q 360 760 331 775 q 413 744 390 744 "}}}
